<svg xmlns="http://www.w3.org/2000/svg" xmlns:xlink="http://www.w3.org/1999/xlink" viewBox="0 0 150.18 189.31"><defs><style>.cls-1{isolation:isolate;}.cls-2{fill:url(#Áåçûìÿííûé_ãðàäèåíò_81);}.cls-10,.cls-11,.cls-12,.cls-13,.cls-14,.cls-15,.cls-16,.cls-17,.cls-18,.cls-19,.cls-20,.cls-21,.cls-3,.cls-32,.cls-33,.cls-34,.cls-35,.cls-36,.cls-37,.cls-4,.cls-41,.cls-42,.cls-44,.cls-46,.cls-5,.cls-50,.cls-51,.cls-52,.cls-53,.cls-54,.cls-55,.cls-56,.cls-57,.cls-6,.cls-9{fill-rule:evenodd;}.cls-3{fill:url(#Áåçûìÿííûé_ãðàäèåíò_16);}.cls-4{fill:url(#Áåçûìÿííûé_ãðàäèåíò_7);}.cls-5{fill:url(#Áåçûìÿííûé_ãðàäèåíò_7-2);}.cls-6{fill:url(#Áåçûìÿííûé_ãðàäèåíò_20);}.cls-7{fill:url(#Áåçûìÿííûé_ãðàäèåíò_55);}.cls-8{fill:url(#Áåçûìÿííûé_ãðàäèåíò_33);}.cls-9{fill:url(#Áåçûìÿííûé_ãðàäèåíò_60);}.cls-10{fill:url(#Áåçûìÿííûé_ãðàäèåíò_60-2);}.cls-11{fill:url(#Áåçûìÿííûé_ãðàäèåíò_60-3);}.cls-12{fill:url(#Áåçûìÿííûé_ãðàäèåíò_60-4);}.cls-13{fill:url(#Áåçûìÿííûé_ãðàäèåíò_60-5);}.cls-14{fill:url(#Áåçûìÿííûé_ãðàäèåíò_60-6);}.cls-15{fill:url(#Áåçûìÿííûé_ãðàäèåíò_43);}.cls-16{fill:url(#Áåçûìÿííûé_ãðàäèåíò_43-2);}.cls-17{fill:url(#Áåçûìÿííûé_ãðàäèåíò_43-3);}.cls-18{fill:url(#Áåçûìÿííûé_ãðàäèåíò_43-4);}.cls-19{fill:url(#Áåçûìÿííûé_ãðàäèåíò_43-5);}.cls-20{fill:url(#Áåçûìÿííûé_ãðàäèåíò_43-6);}.cls-21{fill:url(#Áåçûìÿííûé_ãðàäèåíò_7-3);}.cls-22,.cls-38,.cls-43,.cls-57,.cls-58{opacity:0.5;mix-blend-mode:multiply;}.cls-22{fill:url(#Áåçûìÿííûé_ãðàäèåíò_91);}.cls-23{fill:url(#Áåçûìÿííûé_ãðàäèåíò_7-4);}.cls-24{fill:url(#Áåçûìÿííûé_ãðàäèåíò_40);}.cls-25,.cls-46{fill:#fff;}.cls-26{fill:url(#Áåçûìÿííûé_ãðàäèåíò_40-2);}.cls-27{fill:url(#Áåçûìÿííûé_ãðàäèåíò_40-3);}.cls-28{fill:url(#Áåçûìÿííûé_ãðàäèåíò_40-4);}.cls-29{fill:url(#Áåçûìÿííûé_ãðàäèåíò_40-5);}.cls-30{fill:url(#Áåçûìÿííûé_ãðàäèåíò_40-6);}.cls-31{fill:url(#Áåçûìÿííûé_ãðàäèåíò_40-7);}.cls-32{fill:url(#Áåçûìÿííûé_ãðàäèåíò_60-7);}.cls-33{fill:url(#Áåçûìÿííûé_ãðàäèåíò_60-8);}.cls-34{fill:url(#Áåçûìÿííûé_ãðàäèåíò_60-9);}.cls-35{fill:url(#Áåçûìÿííûé_ãðàäèåíò_60-10);}.cls-36{fill:url(#Áåçûìÿííûé_ãðàäèåíò_60-11);}.cls-37{fill:url(#Áåçûìÿííûé_ãðàäèåíò_60-12);}.cls-38{fill:url(#Áåçûìÿííûé_ãðàäèåíò_91-2);}.cls-39{fill:url(#Áåçûìÿííûé_ãðàäèåíò_40-8);}.cls-40{fill:#79023e;}.cls-41{fill:url(#Áåçûìÿííûé_ãðàäèåíò_82);}.cls-42{fill:#ff5431;}.cls-43{fill:#b32972;}.cls-44{fill:url(#Áåçûìÿííûé_ãðàäèåíò_82-2);}.cls-45{fill:url(#Áåçûìÿííûé_ãðàäèåíò_40-9);}.cls-46{mix-blend-mode:soft-light;}.cls-47{fill:url(#Áåçûìÿííûé_ãðàäèåíò_33-2);}.cls-48{fill:url(#Áåçûìÿííûé_ãðàäèåíò_55-2);}.cls-49{fill:#ffff60;}.cls-50{fill:url(#Áåçûìÿííûé_ãðàäèåíò_20-2);}.cls-51{fill:url(#Áåçûìÿííûé_ãðàäèåíò_43-7);}.cls-52{fill:url(#Áåçûìÿííûé_ãðàäèåíò_43-8);}.cls-53{fill:url(#Áåçûìÿííûé_ãðàäèåíò_43-9);}.cls-54{fill:url(#Áåçûìÿííûé_ãðàäèåíò_43-10);}.cls-55{fill:url(#Áåçûìÿííûé_ãðàäèåíò_43-11);}.cls-56{fill:url(#Áåçûìÿííûé_ãðàäèåíò_43-12);}.cls-57{fill:#9d0056;}.cls-58{fill:url(#Áåçûìÿííûé_ãðàäèåíò_91-3);}.cls-59{fill:url(#Áåçûìÿííûé_ãðàäèåíò_7-5);}.cls-60{fill:url(#Áåçûìÿííûé_ãðàäèåíò_40-10);}.cls-61{fill:url(#Áåçûìÿííûé_ãðàäèåíò_40-11);}.cls-62{fill:url(#Áåçûìÿííûé_ãðàäèåíò_40-12);}.cls-63{fill:url(#Áåçûìÿííûé_ãðàäèåíò_40-13);}.cls-64{fill:url(#Áåçûìÿííûé_ãðàäèåíò_40-14);}.cls-65{fill:url(#Áåçûìÿííûé_ãðàäèåíò_40-15);}.cls-66{fill:url(#Áåçûìÿííûé_ãðàäèåíò_40-16);}</style><radialGradient id="Áåçûìÿííûé_ãðàäèåíò_81" cx="77.84" cy="5.2" r="3.73" gradientUnits="userSpaceOnUse"><stop offset="0" stop-color="#a4023e"/><stop offset="0.99" stop-color="#860244"/></radialGradient><radialGradient id="Áåçûìÿííûé_ãðàäèåíò_16" cx="43.34" cy="73.23" r="65.22" gradientUnits="userSpaceOnUse"><stop offset="0" stop-color="#ff502f"/><stop offset="0.99" stop-color="#ef183b"/></radialGradient><radialGradient id="Áåçûìÿííûé_ãðàäèåíò_7" cx="43.34" cy="113.77" r="79.7" gradientUnits="userSpaceOnUse"><stop offset="0" stop-color="#ff2a22"/><stop offset="0.99" stop-color="#bf003b"/></radialGradient><radialGradient id="Áåçûìÿííûé_ãðàäèåíò_7-2" cx="62.78" cy="49.7" r="30.13" xlink:href="#Áåçûìÿííûé_ãðàäèåíò_7"/><radialGradient id="Áåçûìÿííûé_ãðàäèåíò_20" cx="62.84" cy="28.66" r="30.1" gradientUnits="userSpaceOnUse"><stop offset="0" stop-color="#ff5f2f"/><stop offset="0.99" stop-color="#ef183b"/></radialGradient><linearGradient id="Áåçûìÿííûé_ãðàäèåíò_55" x1="77.17" y1="31.54" x2="77.17" y2="14.57" gradientUnits="userSpaceOnUse"><stop offset="0" stop-color="#ff9d31"/><stop offset="1" stop-color="#ffcc1b"/></linearGradient><radialGradient id="Áåçûìÿííûé_ãðàäèåíò_33" cx="77.17" cy="31.02" r="9.45" gradientUnits="userSpaceOnUse"><stop offset="0" stop-color="#ff8013"/><stop offset="0.99" stop-color="#ff4844"/></radialGradient><linearGradient id="Áåçûìÿííûé_ãðàäèåíò_60" x1="-2.51" y1="177.34" x2="41.13" y2="101.74" gradientUnits="userSpaceOnUse"><stop offset="0" stop-color="#ff9398"/><stop offset="1" stop-color="#ffb27e"/></linearGradient><linearGradient id="Áåçûìÿííûé_ãðàäèåíò_60-2" x1="110.6" y1="179.78" x2="155.68" y2="101.7" xlink:href="#Áåçûìÿííûé_ãðàäèåíò_60"/><linearGradient id="Áåçûìÿííûé_ãðàäèåíò_60-3" x1="16.1" y1="177.33" x2="62.08" y2="97.68" xlink:href="#Áåçûìÿííûé_ãðàäèåíò_60"/><linearGradient id="Áåçûìÿííûé_ãðàäèåíò_60-4" x1="91.19" y1="179.12" x2="138.11" y2="97.85" xlink:href="#Áåçûìÿííûé_ãðàäèåíò_60"/><linearGradient id="Áåçûìÿííûé_ãðàäèåíò_60-5" x1="38.38" y1="177.94" x2="86.76" y2="94.15" xlink:href="#Áåçûìÿííûé_ãðàäèåíò_60"/><linearGradient id="Áåçûìÿííûé_ãðàäèåíò_60-6" x1="65.2" y1="178.51" x2="113.64" y2="94.61" xlink:href="#Áåçûìÿííûé_ãðàäèåíò_60"/><linearGradient id="Áåçûìÿííûé_ãðàäèåíò_43" x1="89.5" y1="85.09" x2="89.5" y2="67.26" gradientUnits="userSpaceOnUse"><stop offset="0" stop-color="#ffb8bd"/><stop offset="1" stop-color="#ffeab8"/></linearGradient><linearGradient id="Áåçûìÿííûé_ãðàäèåíò_43-2" x1="106.48" y1="88.21" x2="106.48" y2="68.12" xlink:href="#Áåçûìÿííûé_ãðàäèåíò_43"/><linearGradient id="Áåçûìÿííûé_ãðàäèåíò_43-3" x1="118.52" y1="92.59" x2="118.52" y2="69.05" xlink:href="#Áåçûìÿííûé_ãðàäèåíò_43"/><linearGradient id="Áåçûìÿííûé_ãðàäèåíò_43-4" x1="64.7" y1="84.75" x2="64.7" y2="67.26" xlink:href="#Áåçûìÿííûé_ãðàäèåíò_43"/><linearGradient id="Áåçûìÿííûé_ãðàäèåíò_43-5" x1="48" y1="87.2" x2="48" y2="67.77" xlink:href="#Áåçûìÿííûé_ãðàäèåíò_43"/><linearGradient id="Áåçûìÿííûé_ãðàäèåíò_43-6" x1="34.03" y1="91.24" x2="34.03" y2="68.84" xlink:href="#Áåçûìÿííûé_ãðàäèåíò_43"/><radialGradient id="Áåçûìÿííûé_ãðàäèåíò_7-3" cx="46.5" cy="187.1" r="59.38" xlink:href="#Áåçûìÿííûé_ãðàäèåíò_7"/><radialGradient id="Áåçûìÿííûé_ãðàäèåíò_91" cx="74.69" cy="94.34" r="50.08" gradientUnits="userSpaceOnUse"><stop offset="0" stop-color="#ff6d77"/><stop offset="1" stop-color="#890050"/></radialGradient><radialGradient id="Áåçûìÿííûé_ãðàäèåíò_7-4" cx="75.09" cy="91.98" r="53.38" xlink:href="#Áåçûìÿííûé_ãðàäèåíò_7"/><radialGradient id="Áåçûìÿííûé_ãðàäèåíò_40" cx="77.09" cy="84.97" r="2.23" gradientUnits="userSpaceOnUse"><stop offset="0" stop-color="#ffcc1b"/><stop offset="1" stop-color="#ff7e31"/></radialGradient><radialGradient id="Áåçûìÿííûé_ãðàäèåíò_40-2" cx="103.63" cy="86.38" r="2.23" xlink:href="#Áåçûìÿííûé_ãðàäèåíò_40"/><radialGradient id="Áåçûìÿííûé_ãðàäèåíò_40-3" cx="47.93" cy="86.38" r="2.23" xlink:href="#Áåçûìÿííûé_ãðàäèåíò_40"/><radialGradient id="Áåçûìÿííûé_ãðàäèåíò_40-4" cx="123.98" cy="89.42" r="2.23" xlink:href="#Áåçûìÿííûé_ãðàäèåíò_40"/><radialGradient id="Áåçûìÿííûé_ãðàäèåíò_40-5" cx="26.46" cy="89.42" r="2.23" xlink:href="#Áåçûìÿííûé_ãðàäèåíò_40"/><radialGradient id="Áåçûìÿííûé_ãðàäèåíò_40-6" cx="140.9" cy="92.78" r="2.23" xlink:href="#Áåçûìÿííûé_ãðàäèåíò_40"/><radialGradient id="Áåçûìÿííûé_ãðàäèåíò_40-7" cx="8.04" cy="92.78" r="2.23" xlink:href="#Áåçûìÿííûé_ãðàäèåíò_40"/><linearGradient id="Áåçûìÿííûé_ãðàäèåíò_60-7" x1="47.39" y1="66.96" x2="58.37" y2="47.94" xlink:href="#Áåçûìÿííûé_ãðàäèåíò_60"/><linearGradient id="Áåçûìÿííûé_ãðàäèåíò_60-8" x1="65.79" y1="65.19" x2="77.78" y2="44.42" xlink:href="#Áåçûìÿííûé_ãðàäèåíò_60"/><linearGradient id="Áåçûìÿííûé_ãðàäèåíò_60-9" x1="55.96" y1="65.59" x2="67.37" y2="45.83" xlink:href="#Áåçûìÿííûé_ãðàäèåíò_60"/><linearGradient id="Áåçûìÿííûé_ãðàäèåíò_60-10" x1="78.82" y1="65.5" x2="90.42" y2="45.4" xlink:href="#Áåçûìÿííûé_ãðàäèåíò_60"/><linearGradient id="Áåçûìÿííûé_ãðàäèåíò_60-11" x1="89.27" y1="66.8" x2="100.47" y2="47.4" xlink:href="#Áåçûìÿííûé_ãðàäèåíò_60"/><linearGradient id="Áåçûìÿííûé_ãðàäèåíò_60-12" x1="95.64" y1="68.19" x2="106.58" y2="49.24" xlink:href="#Áåçûìÿííûé_ãðàäèåíò_60"/><radialGradient id="Áåçûìÿííûé_ãðàäèåíò_91-2" cx="76.28" cy="155.46" r="28.55" xlink:href="#Áåçûìÿííûé_ãðàäèåíò_91"/><radialGradient id="Áåçûìÿííûé_ãðàäèåíò_40-8" cx="77.02" cy="119.36" r="53.5" xlink:href="#Áåçûìÿííûé_ãðàäèåíò_40"/><linearGradient id="Áåçûìÿííûé_ãðàäèåíò_82" x1="67.19" y1="189.31" x2="67.19" y2="114.01" gradientUnits="userSpaceOnUse"><stop offset="0" stop-color="#ff313e"/><stop offset="0.99" stop-color="#a40244"/></linearGradient><linearGradient id="Áåçûìÿííûé_ãðàäèåíò_82-2" x1="192.77" y1="189.31" x2="192.77" y2="114.01" gradientTransform="matrix(-1, 0, 0, 1, 278.93, 0)" xlink:href="#Áåçûìÿííûé_ãðàäèåíò_82"/><radialGradient id="Áåçûìÿííûé_ãðàäèåíò_40-9" cx="74.22" cy="112.02" r="46.4" xlink:href="#Áåçûìÿííûé_ãðàäèåíò_40"/><radialGradient id="Áåçûìÿííûé_ãðàäèåíò_33-2" cx="77.55" cy="13.32" r="4.32" xlink:href="#Áåçûìÿííûé_ãðàäèåíò_33"/><linearGradient id="Áåçûìÿííûé_ãðàäèåíò_55-2" x1="72.23" y1="12.37" x2="82.87" y2="12.37" xlink:href="#Áåçûìÿííûé_ãðàäèåíò_55"/><radialGradient id="Áåçûìÿííûé_ãðàäèåíò_20-2" cx="80.97" cy="2.53" r="6.76" xlink:href="#Áåçûìÿííûé_ãðàäèåíò_20"/><linearGradient id="Áåçûìÿííûé_ãðàäèåíò_43-7" x1="65.4" y1="44.78" x2="65.4" y2="31.84" xlink:href="#Áåçûìÿííûé_ãðàäèåíò_43"/><linearGradient id="Áåçûìÿííûé_ãðàäèåíò_43-8" x1="58.59" y1="47.39" x2="58.59" y2="32.69" xlink:href="#Áåçûìÿííûé_ãðàäèåíò_43"/><linearGradient id="Áåçûìÿííûé_ãðàäèåíò_43-9" x1="72.44" y1="43.45" x2="72.44" y2="31.54" xlink:href="#Áåçûìÿííûé_ãðàäèåíò_43"/><linearGradient id="Áåçûìÿííûé_ãðàäèåíò_43-10" x1="83.93" y1="44.34" x2="83.93" y2="31.72" xlink:href="#Áåçûìÿííûé_ãðàäèåíò_43"/><linearGradient id="Áåçûìÿííûé_ãðàäèåíò_43-11" x1="91.04" y1="46.49" x2="91.04" y2="32.24" xlink:href="#Áåçûìÿííûé_ãðàäèåíò_43"/><linearGradient id="Áåçûìÿííûé_ãðàäèåíò_43-12" x1="95.46" y1="48.41" x2="95.46" y2="32.82" xlink:href="#Áåçûìÿííûé_ãðàäèåíò_43"/><radialGradient id="Áåçûìÿííûé_ãðàäèåíò_91-3" cx="75.98" cy="49.38" r="21.14" xlink:href="#Áåçûìÿííûé_ãðàäèåíò_91"/><radialGradient id="Áåçûìÿííûé_ãðàäèåíò_7-5" cx="75.65" cy="47.95" r="22.09" xlink:href="#Áåçûìÿííûé_ãðàäèåíò_7"/><radialGradient id="Áåçûìÿííûé_ãðàäèåíò_40-10" cx="77.09" cy="44.63" r="2.23" xlink:href="#Áåçûìÿííûé_ãðàäèåíò_40"/><radialGradient id="Áåçûìÿííûé_ãðàäèåíò_40-11" cx="90.96" cy="45.96" r="2.23" xlink:href="#Áåçûìÿííûé_ãðàäèåíò_40"/><radialGradient id="Áåçûìÿííûé_ãðàäèåíò_40-12" cx="100.22" cy="48.85" r="2.23" xlink:href="#Áåçûìÿííûé_ãðàäèåíò_40"/><radialGradient id="Áåçûìÿííûé_ãðàäèåíò_40-13" cx="106.4" cy="51.39" r="2.23" xlink:href="#Áåçûìÿííûé_ãðàäèåíò_40"/><radialGradient id="Áåçûìÿííûé_ãðàäèåíò_40-14" cx="65.77" cy="45.14" r="2.23" xlink:href="#Áåçûìÿííûé_ãðàäèåíò_40"/><radialGradient id="Áåçûìÿííûé_ãðàäèåíò_40-15" cx="55.92" cy="47.29" r="2.23" xlink:href="#Áåçûìÿííûé_ãðàäèåíò_40"/><radialGradient id="Áåçûìÿííûé_ãðàäèåíò_40-16" cx="46.6" cy="50.62" r="2.23" xlink:href="#Áåçûìÿííûé_ãðàäèåíò_40"/></defs><g class="cls-1"><g id="Capa_2" data-name="Capa 2"><g id="circus"><polygon class="cls-2" points="77 10.41 77.5 0 78.15 0 78.68 10.41 77 10.41"/><path class="cls-3" d="M4.14,93.57s34.17-13,47.78-25.27c0,0,19.24-6.85,47.12,0A174.73,174.73,0,0,0,144.9,93.57Z"/><path class="cls-4" d="M10.29,189.31,4.14,93.57c36.4-12,100.72-13.06,140.76,0l-4.41,95.74Z"/><path class="cls-5" d="M49.87,70,46,48.46s10.6-6.72,28.7-6.71c21.78,0,31.38,7.07,31.38,7.07L101,70S80,63.59,49.87,70Z"/><path class="cls-6" d="M46.11,48.46s23.13-11.14,28.8-27.7h4.75s4.57,17,26.52,28.06C106.18,48.82,76.15,36.54,46.11,48.46Z"/><path class="cls-7" d="M64,30.92A24,24,0,0,0,74.59,14.57h5.78s2.34,11.05,10,17C90.38,31.54,74,28.85,64,30.92Z"/><path class="cls-8" d="M67.17,33,64,30.92s13.21-4.64,26.42.62L86.43,33S76.46,29.82,67.17,33Z"/><polygon class="cls-9" points="18.21 189.31 12.06 91.24 19.88 89.47 25.71 189.31 18.21 189.31"/><polygon class="cls-10" points="127.1 189.31 132.59 90.6 139.9 92.59 134.6 189.31 127.1 189.31"/><polygon class="cls-11" points="36.84 189.31 31.91 87.2 41.71 85.92 45.41 189.31 36.84 189.31"/><polygon class="cls-12" points="108.83 189.31 112.42 86.76 121.4 88.21 117.39 189.31 108.83 189.31"/><polygon class="cls-13" points="58.07 189.31 55.16 84.75 69.52 84.2 68.84 189.31 58.07 189.31"/><polygon class="cls-14" points="83.9 189.31 84.22 84.2 97.14 85.09 94.4 189.31 83.9 189.31"/><path class="cls-15" d="M97.14,85.09a59.83,59.83,0,0,1-9.92-17.47s-2-.26-5.36-.36c0,0-.07,9.27,2.36,16.94Z"/><path class="cls-16" d="M112.43,86.76S97.14,79.41,91.55,68.12l3.5.54s6.7,11.74,26.35,19.55Z"/><path class="cls-17" d="M132.59,90.6s-20-5.25-35.45-21.55l2.92.67s9.86,13.09,39.84,22.87Z"/><path class="cls-18" d="M69.52,84.2S74,79.47,74.23,67.26l-4.71.08A36.38,36.38,0,0,1,55.16,84.75Z"/><path class="cls-19" d="M41.71,85.92S60.89,75.72,64.1,67.77l-3.65.41S52.54,80,31.91,87.2Z"/><path class="cls-20" d="M19.88,89.47S46.11,79.41,56,68.84l-4.07.73A136.24,136.24,0,0,1,12.06,91.24Z"/><polygon class="cls-21" points="140.49 189.31 140.78 186.24 10.11 187.59 10.29 189.31 140.49 189.31"/><path class="cls-22" d="M4.47,96.68l.63,5.88S30.91,87.2,77.27,87.2,144,103.57,144,103.57l1-10S72,72.58,4.47,96.68Z"/><path class="cls-23" d="M4.14,93.57,0,98.28S30.47,85.92,77.27,85.92,150.18,99.8,150.18,99.8l-5.28-6.23s-21.06-9.4-67.63-9.4S4.14,93.57,4.14,93.57Z"/><path class="cls-24" d="M78.58,84.17a1.41,1.41,0,1,1-1.41-1.41A1.41,1.41,0,0,1,78.58,84.17Z"/><path class="cls-25" d="M78.17,84.17a1,1,0,1,1-1-1A1,1,0,0,1,78.17,84.17Z"/><circle class="cls-26" cx="103.71" cy="85.58" r="1.41"/><circle class="cls-25" cx="103.71" cy="85.58" r="1"/><path class="cls-27" d="M49.41,85.58A1.41,1.41,0,1,1,48,84.17,1.41,1.41,0,0,1,49.41,85.58Z"/><path class="cls-25" d="M49,85.58a1,1,0,1,1-1-1A1,1,0,0,1,49,85.58Z"/><path class="cls-28" d="M125.47,88.62a1.41,1.41,0,1,1-1.41-1.41A1.41,1.41,0,0,1,125.47,88.62Z"/><circle class="cls-25" cx="124.06" cy="88.62" r="1"/><path class="cls-29" d="M27.94,88.62a1.41,1.41,0,1,1-1.41-1.41A1.41,1.41,0,0,1,27.94,88.62Z"/><circle class="cls-25" cx="26.53" cy="88.62" r="1"/><path class="cls-30" d="M142.38,92a1.41,1.41,0,1,1-1.4-1.4A1.41,1.41,0,0,1,142.38,92Z"/><circle class="cls-25" cx="140.98" cy="91.98" r="1"/><path class="cls-31" d="M9.53,92a1.41,1.41,0,1,1-1.41-1.4A1.41,1.41,0,0,1,9.53,92Z"/><circle class="cls-25" cx="8.12" cy="91.98" r="1"/><polygon class="cls-32" points="51.93 69.58 49 47.38 54.52 45.72 55.99 68.84 51.93 69.58"/><polygon class="cls-33" points="69.52 67.34 68.7 43.45 75.76 43.26 74.23 67.26 69.52 67.34"/><polygon class="cls-34" points="64.1 67.77 63.96 43.86 58.58 44.78 60.45 68.18 64.1 67.77"/><polygon class="cls-35" points="81.86 67.26 81.86 43.55 88.6 44.34 87.22 67.62 81.86 67.26"/><polygon class="cls-36" points="91.55 68.12 94.72 45.48 98.89 46.49 95.05 68.66 91.55 68.12"/><polygon class="cls-37" points="97.14 69.05 102.3 47.47 105.14 48.41 100.06 69.72 97.14 69.05"/><polygon class="cls-38" points="98.3 189.31 97.63 121.61 54.53 121.61 54.26 189.31 98.3 189.31"/><path class="cls-39" d="M93.87,123.68l-2,65.62H61.58L58.3,123.68c2.62-.58,6.2-2.42,8.38-7.92a27.5,27.5,0,0,1,18.82,0C87.67,121.26,91.25,123.1,93.87,123.68Z"/><path class="cls-40" d="M93.87,123.68l-2,65.62H61.58L58.3,123.68c2.62-.58,6.2-2.42,8.38-7.92a27.5,27.5,0,0,1,18.82,0C87.67,121.26,91.25,123.1,93.87,123.68Z"/><path class="cls-41" d="M76.09,114.1S74.66,133,61.82,137.56l2.72,51.75h-3L58.3,123.68l8.38-7.92A16.42,16.42,0,0,1,76.09,114.1Z"/><polygon class="cls-42" points="59.89 136.74 62 138.29 63.71 136.74 59.89 135.67 59.89 136.74"/><path class="cls-43" d="M74.23,114.16s-2.59,16.12-12.43,22c0,0,9.08-7.92,10.22-19.77l-3.57,1.29s-2.63,11.88-8,18.11l-.57-.16L57,123.57l11-9.41Z"/><path class="cls-44" d="M77.27,114.1S78.69,133,91.54,137.56L90,189.31h3l2.11-65.63-8.37-7.92A16.45,16.45,0,0,0,77.27,114.1Z"/><polygon class="cls-42" points="93.47 136.74 91.35 138.29 89.64 136.74 93.47 135.67 93.47 136.74"/><path class="cls-43" d="M79.12,114.16s2.6,16.12,12.43,22c0,0-9.08-7.92-10.22-19.77l3.57,1.29s2.63,11.88,8,18.11l.58-.16,2.85-12.1-11-9.41Z"/><path class="cls-45" d="M97.63,121.62,95.94,189.3H91.88l2-65.62c-2.62-.58-6.2-2.42-8.37-7.92a27.5,27.5,0,0,0-18.82,0c-2.18,5.5-5.76,7.34-8.38,7.92l3.28,65.62H57.19l-2.66-67.69a1,1,0,0,1,1.11-1.13c2,.13,6-.49,8.17-6.85a1,1,0,0,1,.58-.64,30.76,30.76,0,0,1,23.39,0,1,1,0,0,1,.58.64c2.13,6.35,6.14,7,8.16,6.85A1,1,0,0,1,97.63,121.62Z"/><path class="cls-46" d="M67.19,112.5l1.17,2.13s9.87-2.45,17.3.73l1.56-2.61S75.89,109,67.19,112.5Z"/><path class="cls-46" d="M86.16,115.83A11.91,11.91,0,0,0,88,119.15l1.41-2A31.64,31.64,0,0,1,88,113.48Z"/><path class="cls-47" d="M74.23,16.31l-2-1.74V11.5a12.6,12.6,0,0,1,10.64,0v3.07l-2.16,1.31-.12-.53s-2.17-1.26-6.08-.06Z"/><path class="cls-48" d="M72.23,14.57a12.37,12.37,0,0,1,10.64,0V11.5s-5.32-3-10.64,0Z"/><path class="cls-49" d="M79.27,16.31a79.18,79.18,0,0,0,2,7.72l1.58.07s-1.78-5-2.5-7.61Z"/><polygon class="cls-49" points="81.36 24.62 82.62 27.2 85.02 27.57 82.88 24.59 81.36 24.62"/><path class="cls-49" d="M78.14,10.17v2.72a16.74,16.74,0,0,1,3.7.79v-2.6A10.4,10.4,0,0,0,78.14,10.17Z"/><path class="cls-50" d="M77.47.81h.72S79.53.59,81.5,2.08s5.26,1.78,9.26,1c0,0-3.88,2.91-7.43,3.55a16.85,16.85,0,0,1-6.15,0Z"/><path class="cls-51" d="M58.58,44.78s7.44-5.73,11-12.45l2.67-.49S68,39.9,64,43.86Z"/><path class="cls-52" d="M54.52,45.72s9.41-7.18,13.67-13l-1,.32A63.14,63.14,0,0,1,49,47.39Z"/><path class="cls-53" d="M68.7,43.45a39.9,39.9,0,0,0,4.61-11.73l2.84-.18s.21,9.79-.39,11.72Z"/><path class="cls-54" d="M81.86,43.55s-2.48-8.18-2.59-11.83l2.09.22s3.25,8,7.24,12.4Z"/><path class="cls-55" d="M94.72,45.48s-8.14-7.06-11.53-13.24l1.83.39s8.4,10.16,13.87,13.86Z"/><path class="cls-56" d="M102.3,47.47S92.15,41.75,85.79,32.82l.64.19a53.15,53.15,0,0,0,18.71,15.4Z"/><path class="cls-57" d="M65.85,34.39S78.41,31,88.6,35.59L86.43,33s-8.1-3.46-19.26,0Z"/><path class="cls-58" d="M46.68,52l.45,2.52S57,44.78,77.55,44.78c19.34,0,27,10.52,27,10.52l.75-3.07s-14-8.78-28.29-8.78S46.68,52,46.68,52Z"/><path class="cls-59" d="M46.11,48.46,44.83,53S59.39,44.31,77,44.31A53.72,53.72,0,0,1,106.48,53l-.3-4.2s-10.29-6-29.18-6S46.11,48.46,46.11,48.46Z"/><path class="cls-60" d="M78.58,43.84a1.41,1.41,0,1,1-1.41-1.41A1.41,1.41,0,0,1,78.58,43.84Z"/><path class="cls-25" d="M78.17,43.84a1,1,0,1,1-1-1A1,1,0,0,1,78.17,43.84Z"/><path class="cls-61" d="M92.45,45.17A1.41,1.41,0,1,1,91,43.76,1.41,1.41,0,0,1,92.45,45.17Z"/><circle class="cls-25" cx="91.04" cy="45.17" r="1"/><path class="cls-62" d="M101.71,48.05a1.41,1.41,0,1,1-1.41-1.41A1.41,1.41,0,0,1,101.71,48.05Z"/><circle class="cls-25" cx="100.3" cy="48.05" r="1"/><path class="cls-63" d="M107.89,50.59a1.41,1.41,0,1,1-1.41-1.41A1.41,1.41,0,0,1,107.89,50.59Z"/><circle class="cls-25" cx="106.48" cy="50.59" r="1"/><path class="cls-64" d="M67.26,44.34a1.41,1.41,0,1,1-1.41-1.41A1.41,1.41,0,0,1,67.26,44.34Z"/><path class="cls-25" d="M66.85,44.34a1,1,0,1,1-1-1A1,1,0,0,1,66.85,44.34Z"/><path class="cls-65" d="M57.4,46.49A1.41,1.41,0,1,1,56,45.08,1.41,1.41,0,0,1,57.4,46.49Z"/><circle class="cls-25" cx="56" cy="46.49" r="1"/><path class="cls-66" d="M48.09,49.82a1.41,1.41,0,1,1-1.41-1.41A1.41,1.41,0,0,1,48.09,49.82Z"/><circle class="cls-25" cx="46.68" cy="49.82" r="1"/></g></g></g></svg>