<svg xmlns="http://www.w3.org/2000/svg" xmlns:xlink="http://www.w3.org/1999/xlink" viewBox="0 0 56.74 74.31"><defs><style>.cls-1{isolation:isolate;}.cls-10,.cls-11,.cls-12,.cls-16,.cls-17,.cls-2,.cls-28,.cls-29,.cls-3,.cls-4,.cls-5,.cls-6,.cls-7{fill-rule:evenodd;}.cls-2{fill:url(#Áåçûìÿííûé_ãðàäèåíò_543);}.cls-3{fill:url(#Áåçûìÿííûé_ãðàäèåíò_543-2);}.cls-4{fill:url(#Áåçûìÿííûé_ãðàäèåíò_427);}.cls-5{fill:url(#Áåçûìÿííûé_ãðàäèåíò_427-2);}.cls-6{fill:url(#Áåçûìÿííûé_ãðàäèåíò_543-3);}.cls-7{fill:url(#Áåçûìÿííûé_ãðàäèåíò_543-4);}.cls-8{fill:url(#Áåçûìÿííûé_ãðàäèåíò_111);}.cls-9{fill:url(#Áåçûìÿííûé_ãðàäèåíò_111-2);}.cls-10{fill:url(#Áåçûìÿííûé_ãðàäèåíò_427-3);}.cls-11{fill:url(#Áåçûìÿííûé_ãðàäèåíò_427-4);}.cls-12{fill:url(#Áåçûìÿííûé_ãðàäèåíò_427-5);}.cls-13,.cls-20,.cls-27{fill:#fff;}.cls-13{opacity:0.5;}.cls-13,.cls-27{mix-blend-mode:soft-light;}.cls-14,.cls-29{opacity:0.6;}.cls-14,.cls-28,.cls-29{mix-blend-mode:multiply;}.cls-14{fill:url(#Áåçûìÿííûé_ãðàäèåíò_547);}.cls-15{fill:#79023e;}.cls-16{fill:url(#Áåçûìÿííûé_ãðàäèåíò_561);}.cls-17{fill:url(#Áåçûìÿííûé_ãðàäèåíò_561-2);}.cls-18{fill:url(#Áåçûìÿííûé_ãðàäèåíò_554);}.cls-19{fill:url(#Áåçûìÿííûé_ãðàäèåíò_40);}.cls-21{fill:url(#Áåçûìÿííûé_ãðàäèåíò_40-2);}.cls-22{fill:url(#Áåçûìÿííûé_ãðàäèåíò_40-3);}.cls-23{fill:url(#Áåçûìÿííûé_ãðàäèåíò_40-4);}.cls-24{fill:url(#Áåçûìÿííûé_ãðàäèåíò_40-5);}.cls-25{fill:url(#Áåçûìÿííûé_ãðàäèåíò_40-6);}.cls-26{fill:url(#Áåçûìÿííûé_ãðàäèåíò_40-7);}.cls-28{opacity:0.3;fill:url(#Áåçûìÿííûé_ãðàäèåíò_547-2);}.cls-29{fill:url(#Áåçûìÿííûé_ãðàäèåíò_547-3);}</style><radialGradient id="Áåçûìÿííûé_ãðàäèåíò_543" cx="14.18" cy="29.64" r="23.21" gradientUnits="userSpaceOnUse"><stop offset="0" stop-color="#ffeab8"/><stop offset="1" stop-color="#ffd1cc"/></radialGradient><radialGradient id="Áåçûìÿííûé_ãðàäèåíò_543-2" cx="42.55" cy="29.64" r="23.21" xlink:href="#Áåçûìÿííûé_ãðàäèåíò_543"/><radialGradient id="Áåçûìÿííûé_ãðàäèåíò_427" cx="27.2" cy="10.75" r="22.49" gradientUnits="userSpaceOnUse"><stop offset="0" stop-color="#ff45a9"/><stop offset="1" stop-color="#cd0056"/></radialGradient><radialGradient id="Áåçûìÿííûé_ãðàäèåíò_427-2" cx="41.61" cy="10.55" r="22.44" xlink:href="#Áåçûìÿííûé_ãðàäèåíò_427"/><radialGradient id="Áåçûìÿííûé_ãðàäèåíò_543-3" cx="18.08" cy="29.69" r="21.6" xlink:href="#Áåçûìÿííûé_ãðàäèåíò_543"/><radialGradient id="Áåçûìÿííûé_ãðàäèåíò_543-4" cx="38.17" cy="29.69" r="21.6" xlink:href="#Áåçûìÿííûé_ãðàäèåíò_543"/><radialGradient id="Áåçûìÿííûé_ãðàäèåíò_111" cx="17.81" cy="12.05" r="23.66" gradientUnits="userSpaceOnUse"><stop offset="0" stop-color="#ffcc1b"/><stop offset="1" stop-color="#ff9d31"/></radialGradient><radialGradient id="Áåçûìÿííûé_ãðàäèåíò_111-2" cx="19.77" cy="43.55" r="18.13" xlink:href="#Áåçûìÿííûé_ãðàäèåíò_111"/><radialGradient id="Áåçûìÿííûé_ãðàäèåíò_427-3" cx="12.13" cy="11.07" r="22.01" xlink:href="#Áåçûìÿííûé_ãðàäèåíò_427"/><radialGradient id="Áåçûìÿííûé_ãðàäèåíò_427-4" cx="45.37" cy="10.96" r="21.94" xlink:href="#Áåçûìÿííûé_ãðàäèåíò_427"/><radialGradient id="Áåçûìÿííûé_ãðàäèåíò_427-5" cx="28.27" cy="10.77" r="22.55" xlink:href="#Áåçûìÿííûé_ãðàäèåíò_427"/><linearGradient id="Áåçûìÿííûé_ãðàäèåíò_547" x1="27.87" y1="59.24" x2="27.87" y2="38.21" gradientUnits="userSpaceOnUse"><stop offset="0.01" stop-color="#9f60ac"/><stop offset="1" stop-color="#ffc5d2"/></linearGradient><radialGradient id="Áåçûìÿííûé_ãðàäèåíò_561" cx="28.4" cy="55.35" r="9.09" gradientUnits="userSpaceOnUse"><stop offset="0" stop-color="#f26122"/><stop offset="1" stop-color="#bf4a22"/></radialGradient><radialGradient id="Áåçûìÿííûé_ãðàäèåíò_561-2" cx="28.86" cy="65.28" r="7.17" xlink:href="#Áåçûìÿííûé_ãðàäèåíò_561"/><linearGradient id="Áåçûìÿííûé_ãðàäèåíò_554" x1="21.2" y1="66.24" x2="35.56" y2="66.24" gradientUnits="userSpaceOnUse"><stop offset="0" stop-color="#e86d22"/><stop offset="1" stop-color="#ff6122"/></linearGradient><radialGradient id="Áåçûìÿííûé_ãðàäèåíò_40" cx="28.26" cy="54.93" r="0.93" gradientUnits="userSpaceOnUse"><stop offset="0" stop-color="#ffcc1b"/><stop offset="1" stop-color="#ff7e31"/></radialGradient><radialGradient id="Áåçûìÿííûé_ãðàäèåíò_40-2" cx="173.01" cy="48.19" r="0.93" gradientTransform="matrix(0.85, -0.1, 0.12, 0.99, -127.85, 24.51)" xlink:href="#Áåçûìÿííûé_ãðàäèåíò_40"/><radialGradient id="Áåçûìÿííûé_ãðàäèåíò_40-3" cx="169.18" cy="48.38" r="0.93" gradientTransform="matrix(0.85, -0.1, 0.12, 0.99, -127.85, 24.51)" xlink:href="#Áåçûìÿííûé_ãðàäèåíò_40"/><radialGradient id="Áåçûìÿííûé_ãðàäèåíò_40-4" cx="741.87" cy="138.61" r="0.93" gradientTransform="matrix(-0.83, -0.21, -0.25, 0.97, 679.95, 79.73)" xlink:href="#Áåçûìÿííûé_ãðàäèåíò_40"/><radialGradient id="Áåçûìÿííûé_ãðàäèåíò_40-5" cx="737.79" cy="138.47" r="0.93" gradientTransform="matrix(-0.83, -0.21, -0.25, 0.97, 679.95, 79.73)" xlink:href="#Áåçûìÿííûé_ãðàäèåíò_40"/><radialGradient id="Áåçûìÿííûé_ãðàäèåíò_40-6" cx="549.32" cy="71.24" r="0.93" gradientTransform="matrix(0.56, -0.17, 0.29, 0.96, -312.1, 81.76)" xlink:href="#Áåçûìÿííûé_ãðàäèåíò_40"/><radialGradient id="Áåçûìÿííûé_ãðàäèåíò_40-7" cx="1370.54" cy="253.38" r="0.93" gradientTransform="matrix(-0.54, -0.24, -0.42, 0.91, 878.21, 161.8)" xlink:href="#Áåçûìÿííûé_ãðàäèåíò_40"/><linearGradient id="Áåçûìÿííûé_ãðàäèåíò_547-2" x1="28.39" y1="73.61" x2="28.39" y2="67.12" xlink:href="#Áåçûìÿííûé_ãðàäèåíò_547"/><linearGradient id="Áåçûìÿííûé_ãðàäèåíò_547-3" x1="28.4" y1="58.83" x2="28.4" y2="51.87" xlink:href="#Áåçûìÿííûé_ãðàäèåíò_547"/></defs><g class="cls-1"><g id="Capa_2" data-name="Capa 2"><g id="circus"><path class="cls-2" d="M28.37.05V59.24H23.56s-13.89-6.48-20.39-21A37.59,37.59,0,0,1,.8,31.05c-.21-.95-.38-1.89-.51-2.8A29.69,29.69,0,0,1,0,24.82H0A22.44,22.44,0,0,1,4,11C9.07,3.77,18.44.05,28.37.05Z"/><path class="cls-3" d="M56.43,28.38c-.13.87-.29,1.76-.49,2.67a37.34,37.34,0,0,1-3.38,9.23h0c-6.82,13.09-19.39,19-19.39,19h-4.8V.05c10.29,0,20,4,24.92,11.73h0l.1.16,0,0v0h0a21.71,21.71,0,0,1,2.88,7.51h0v0q.12.66.21,1.35A28.08,28.08,0,0,1,56.43,28.38Z"/><path class="cls-4" d="M24.79,58.85l-1.29.3c-1.08-1.46-15-20.8-13-38.18C12.38,5.71,23.46.49,23.89.29h0l0,2.91.83,54Z"/><path class="cls-5" d="M32.73,59.19l-1.44-.33h0l.87-56.57,0-2,.38.08C34,1.08,44,6.54,45.71,21,47.82,38.54,33.53,58.1,32.73,59.19Z"/><path class="cls-6" d="M25.83.13l-.38,59.11H23.56l-.06-.09c-1.08-1.46-15-20.8-13-38.18C12.38,5.71,23.46.49,23.89.29h0L25.44.17Z"/><path class="cls-7" d="M32.73,59.19l0,.05H30.81L30.42.13l.78.06,1.16.1.17.08C34,1.08,44,6.54,45.71,21,47.82,38.54,33.53,58.1,32.73,59.19Z"/><path class="cls-8" d="M56.43,28.38h0c-1.51-1.82-4.23-1-4.23-1-2-2.74-6.27-1.55-6.27-1.55-3.78-3.12-9.72-2.25-9.72-2.25a33.18,33.18,0,0,0-7.83-1.17,24.16,24.16,0,0,0-8.64,1.17,11.75,11.75,0,0,0-9.4.76c-4.55-.56-6.47,1.49-6.47,1.49A4.54,4.54,0,0,0,.29,28.25,29.69,29.69,0,0,1,0,24.82H0A22.44,22.44,0,0,1,4,11c3.42-3.4,6.35-2.9,6.35-2.9,3.31-2.07,5.45-.75,5.45-.75,5.27-1.73,6.74-.46,6.74-.46a13,13,0,0,1,5.85-1.45,11.81,11.81,0,0,1,5.18,1.11c5.31-.62,7.3,1.32,7.3,1.32a7.74,7.74,0,0,1,6.4,2.1c3.77-.85,5.55,1.14,6,1.83h0l.1.16,0,0v0h0a21.71,21.71,0,0,1,2.88,7.51h0v0q.12.66.21,1.35A28.08,28.08,0,0,1,56.43,28.38Z"/><path class="cls-9" d="M5.86,43.21a3.15,3.15,0,0,1,2.38-.81,10.18,10.18,0,0,1,5.63-.95,8.07,8.07,0,0,1,7-.88,19.64,19.64,0,0,1,14.49-.22s4.54-1.21,6.73,1.8a5.48,5.48,0,0,1,5.08,1.36s2.09-.35,3,.77A40.85,40.85,0,0,1,40.78,54.6L16,54.12A33,33,0,0,1,5.86,43.21Z"/><path class="cls-10" d="M23.5,59.15l-.39.09S2.77,45.15,3.9,24.41C5,4,23.31.4,23.89.29,23.46.49,12.38,5.71,10.54,21,8.46,38.35,22.42,57.69,23.5,59.15Z"/><path class="cls-11" d="M32.94,59.24l-.21-.05c.8-1.09,15.09-20.65,13-38.22C44,6.54,34,1.08,32.53.37c2.68.62,18.59,5.06,19.62,24C53.27,45.15,32.94,59.24,32.94,59.24Z"/><path class="cls-12" d="M25.45,59.24S12.5,23.71,25.45.16a26.59,26.59,0,0,1,5.72,0s11.5,21.63,0,59.09Z"/><path class="cls-13" d="M20.54,22.8S31,21.48,35,16.9C35,16.9,34,6.37,30.81.47L25.45.16S20.41,8.79,20.54,22.8Z"/><path class="cls-13" d="M11.17,20.06s4.64,2.19,8.07,2.05c0,0,.74-16.73,6.21-21.95L23.89.29S13,6.86,11.17,20.06Z"/><path class="cls-13" d="M6.36,16.9l3.33,1.74s2.66-9.51,9.66-15.9l-.51-.47S8.83,6.21,6.36,16.9Z"/><path class="cls-14" d="M52.56,40.28h0c-6.82,13.09-19.39,19-19.39,19H23.56s-13.89-6.48-20.39-21l7.16,7.15,5.66,1,6.17,1,6.21-.08,5.87-.08,6.54-1.25,5.39-.75Z"/><path class="cls-15" d="M19.06,58.83s10.5,1.81,18.53-.19c0,0-2.88-2.39-9.19-2.39S19.06,58.83,19.06,58.83Z"/><path class="cls-16" d="M19.06,58.83l-3-4.71s4.16-2.25,12-2.25A28.09,28.09,0,0,1,40.78,54.6l-3.19,4s-2.68-1.33-9.19-1.33S19.06,58.83,19.06,58.83Z"/><polygon class="cls-15" points="21.7 58.06 22.05 66.97 22.31 66.97 22 57.97 21.7 58.06"/><polygon class="cls-15" points="34.84 57.82 34.57 67.12 34.77 67.12 35.13 57.91 34.84 57.82"/><polygon class="cls-15" points="31.11 57.67 31.14 66.97 31.34 66.97 31.4 57.77 31.11 57.67"/><polygon class="cls-15" points="25.46 57.67 25.48 66.97 25.68 66.97 25.75 57.77 25.46 57.67"/><path class="cls-17" d="M21.2,66.26s7.38-2.17,14.36,0l-.71,7.34H22Z"/><path class="cls-18" d="M21.2,66.26l.13.86c2.08-.66,9.48-2,14.12.23l.11-1.09S29.86,63.75,21.2,66.26Z"/><path class="cls-19" d="M28.88,54.59a.59.59,0,1,1-.59-.59A.58.58,0,0,1,28.88,54.59Z"/><path class="cls-20" d="M28.71,54.59a.42.42,0,1,1-.42-.42A.42.42,0,0,1,28.71,54.59Z"/><path class="cls-21" d="M24.92,54.8a.55.55,0,0,1-.43.65.56.56,0,0,1-.57-.53.56.56,0,0,1,.44-.64A.53.53,0,0,1,24.92,54.8Z"/><path class="cls-20" d="M24.84,54.82a.4.4,0,0,1-.31.46.4.4,0,0,1-.4-.38.36.36,0,1,1,.71-.08Z"/><path class="cls-22" d="M21.7,55.37a.54.54,0,0,1-.43.64.55.55,0,0,1-.57-.53.54.54,0,0,1,.43-.64A.55.55,0,0,1,21.7,55.37Z"/><path class="cls-20" d="M21.62,55.38a.4.4,0,0,1-.31.46.38.38,0,0,1-.4-.37.39.39,0,0,1,.3-.46A.39.39,0,0,1,21.62,55.38Z"/><path class="cls-23" d="M31.77,54.77a.55.55,0,0,0,.34.7.56.56,0,0,0,.64-.44.51.51,0,1,0-1-.26Z"/><path class="cls-20" d="M31.85,54.8a.4.4,0,0,0,.24.5.41.41,0,0,0,.45-.32.36.36,0,1,0-.69-.18Z"/><path class="cls-24" d="M35.18,55.51a.55.55,0,0,0,.34.69.6.6,0,1,0-.34-.69Z"/><path class="cls-20" d="M35.27,55.53a.36.36,0,1,0,.45-.31A.39.39,0,0,0,35.27,55.53Z"/><path class="cls-25" d="M18.79,56.15c.1.32,0,.61-.16.67s-.41-.15-.51-.47,0-.61.17-.66S18.7,55.84,18.79,56.15Z"/><path class="cls-20" d="M18.77,56.16c.07.22,0,.43-.11.47s-.29-.11-.36-.33,0-.43.12-.47S18.71,55.94,18.77,56.16Z"/><path class="cls-26" d="M37.68,56.36c-.14.29-.1.6.07.68s.43-.1.56-.39.11-.61-.07-.69S37.81,56.06,37.68,56.36Z"/><path class="cls-20" d="M37.7,56.36c-.1.21-.08.43,0,.49s.3-.07.39-.28.08-.43,0-.48S37.79,56.15,37.7,56.36Z"/><path class="cls-27" d="M50.75,9.24s4.17,4.21,5,13.88c1,11-7.72,23.35-7.72,23.35s7.39-13.42,7.12-23A26.31,26.31,0,0,0,50.75,9.24Z"/><path class="cls-27" d="M46.48,10.5a19.94,19.94,0,0,1,4.24,16.1S50.17,15.61,46.48,10.5Z"/><path class="cls-27" d="M43.81,7.09A5.87,5.87,0,0,0,46.15,10,4.92,4.92,0,0,0,43.81,7.09Z"/><path class="cls-27" d="M4.73,28a3.88,3.88,0,0,0,.4,3.68A4.9,4.9,0,0,0,4.73,28Z"/><path class="cls-27" d="M21,15.11S22.09,5.92,25.45.16c0,0-3.48,10.65-4.52,15.45Z"/><path class="cls-27" d="M20.79,16.9a40,40,0,0,0-.25,5.9A8,8,0,0,0,20.79,16.9Z"/><path class="cls-27" d="M33.05,51.41a88.3,88.3,0,0,0,2.08-13.2A43.28,43.28,0,0,0,33.05,51.41Z"/><path class="cls-20" d="M21.33,66.77a.24.24,0,0,1,.14-.31h0a.24.24,0,0,1,.3.15h0a.23.23,0,0,1-.14.3h0l-.08,0h0A.22.22,0,0,1,21.33,66.77Zm13.49,0a.24.24,0,0,1-.15-.3h0a.25.25,0,0,1,.31-.15h0a.23.23,0,0,1,.14.3h0a.22.22,0,0,1-.22.16h-.08Zm-12.41-.37a.24.24,0,0,1,.17-.29h0a.23.23,0,0,1,.29.17h0a.25.25,0,0,1-.17.29h-.06A.24.24,0,0,1,22.41,66.44Zm11.35,0a.24.24,0,0,1-.17-.29h0a.24.24,0,0,1,.29-.17h0a.24.24,0,0,1,.17.29h0a.23.23,0,0,1-.23.18h-.06Zm-10.25-.31a.24.24,0,0,1,.18-.28h0a.23.23,0,0,1,.28.19h0a.23.23,0,0,1-.18.28h-.05A.24.24,0,0,1,23.51,66.17Zm9.17,0a.24.24,0,0,1-.19-.28h0a.23.23,0,0,1,.28-.18h0A.24.24,0,0,1,33,66h0a.25.25,0,0,1-.24.18h0ZM24.62,66a.24.24,0,0,1,.2-.27h0a.24.24,0,0,1,.27.19h0a.25.25,0,0,1-.2.28h0A.24.24,0,0,1,24.62,66Zm7,.07a.25.25,0,0,1-.2-.27h0a.24.24,0,0,1,.27-.2h0a.25.25,0,0,1,.21.27h0a.25.25,0,0,1-.24.21h0Zm-5.83-.24a.24.24,0,0,1,.21-.26h0a.24.24,0,0,1,.26.21h0A.24.24,0,0,1,26,66h0A.23.23,0,0,1,25.74,65.79Zm4.73.12h0a.24.24,0,0,1-.22-.26h0a.23.23,0,0,1,.25-.21h0a.23.23,0,0,1,.22.25h0a.23.23,0,0,1-.23.22h0Zm-3.61-.23a.23.23,0,0,1,.22-.25h0a.22.22,0,0,1,.25.22h0a.23.23,0,0,1-.21.25h0A.25.25,0,0,1,26.86,65.68Zm2.49.17a.23.23,0,0,1-.23-.24h0a.23.23,0,0,1,.24-.23h0a.23.23,0,0,1,.23.24h0a.23.23,0,0,1-.23.23h0ZM28,65.62a.24.24,0,0,1,.23-.25h0a.25.25,0,0,1,.25.23h0a.25.25,0,0,1-.23.25h0A.24.24,0,0,1,28,65.62Z"/><path class="cls-28" d="M21.33,67.12a17.21,17.21,0,0,0,2.56,4.23c1.79,1.81,7.89,1.05,9,.31,1.47-1,2.61-4.31,2.61-4.31l-.6,6.26H22Z"/><path class="cls-15" d="M22,73.61a28.81,28.81,0,0,1,12.86,0A28.75,28.75,0,0,1,22,73.61Z"/><path class="cls-29" d="M19.69,58.55s1-6.37,8.71-6.1a9.88,9.88,0,0,1,9.19,6.19l3.19-4S36.3,51.87,28,51.87s-12,2.25-12,2.25l3,4.71Z"/></g></g></g></svg>