<svg xmlns="http://www.w3.org/2000/svg" xmlns:xlink="http://www.w3.org/1999/xlink" viewBox="0 0 229.82 75.95"><defs><style>.cls-1{isolation:isolate;}.cls-10,.cls-11,.cls-2,.cls-3,.cls-4,.cls-5,.cls-6,.cls-7,.cls-8,.cls-9{fill-rule:evenodd;}.cls-2{fill:url(#Áåçûìÿííûé_ãðàäèåíò_87);}.cls-3{fill:url(#Áåçûìÿííûé_ãðàäèåíò_55);}.cls-4{fill:#ff6313;}.cls-5{fill:#ac2c13;}.cls-6,.cls-9{opacity:0.5;mix-blend-mode:multiply;}.cls-6{fill:url(#Áåçûìÿííûé_ãðàäèåíò_84);}.cls-7{fill:url(#Áåçûìÿííûé_ãðàäèåíò_87-2);}.cls-8{fill:url(#Áåçûìÿííûé_ãðàäèåíò_55-2);}.cls-9{fill:url(#Áåçûìÿííûé_ãðàäèåíò_84-2);}.cls-10{fill:url(#Áåçûìÿííûé_ãðàäèåíò_131);}.cls-11{fill:url(#Áåçûìÿííûé_ãðàäèåíò_7);}.cls-12{fill:#ffffe4;}.cls-13{fill:#fff;}</style><linearGradient id="Áåçûìÿííûé_ãðàäèåíò_87" x1="206.55" y1="49.77" x2="206.55" y2="26.17" gradientUnits="userSpaceOnUse"><stop offset="0" stop-color="#ff5713"/><stop offset="0.99" stop-color="#e50244"/></linearGradient><linearGradient id="Áåçûìÿííûé_ãðàäèåíò_55" x1="85.33" y1="117.71" x2="108.94" y2="117.71" gradientTransform="translate(158.83 -103.85) rotate(16.82)" gradientUnits="userSpaceOnUse"><stop offset="0" stop-color="#ff9d31"/><stop offset="1" stop-color="#ffcc1b"/></linearGradient><linearGradient id="Áåçûìÿííûé_ãðàäèåíò_84" x1="192.11" y1="34.59" x2="209.53" y2="34.59" gradientUnits="userSpaceOnUse"><stop offset="0" stop-color="#890050"/><stop offset="1" stop-color="#db6d57"/></linearGradient><linearGradient id="Áåçûìÿííûé_ãðàäèåíò_87-2" x1="193.56" y1="49.77" x2="193.56" y2="26.17" gradientTransform="matrix(-1, 0, 0, 1, 216.83, 0)" xlink:href="#Áåçûìÿííûé_ãðàäèåíò_87"/><linearGradient id="Áåçûìÿííûé_ãðàäèåíò_55-2" x1="72.9" y1="121.47" x2="96.5" y2="121.47" gradientTransform="matrix(-0.96, 0.29, 0.29, 0.96, 58, -103.85)" xlink:href="#Áåçûìÿííûé_ãðàäèåíò_55"/><linearGradient id="Áåçûìÿííûé_ãðàäèåíò_84-2" x1="179.11" y1="34.59" x2="196.54" y2="34.59" gradientTransform="matrix(-1, 0, 0, 1, 216.83, 0)" xlink:href="#Áåçûìÿííûé_ãðàäèåíò_84"/><linearGradient id="Áåçûìÿííûé_ãðàäèåíò_131" x1="20.31" y1="37.97" x2="210.72" y2="37.97" gradientUnits="userSpaceOnUse"><stop offset="0" stop-color="#ffcc1b"/><stop offset="0.81" stop-color="#d34c31"/><stop offset="0.97" stop-color="#ffa431"/></linearGradient><radialGradient id="Áåçûìÿííûé_ãðàäèåíò_7" cx="115.51" cy="37.97" r="65.54" gradientUnits="userSpaceOnUse"><stop offset="0" stop-color="#ff2a22"/><stop offset="0.99" stop-color="#bf003b"/></radialGradient></defs><g class="cls-1"><g id="Capa_2" data-name="Capa 2"><g id="circus"><path class="cls-2" d="M191.72,46.8l29.77,3L221,26.17,193.16,28.8A68,68,0,0,0,191.72,46.8Z"/><polygon class="cls-3" points="221.01 26.18 223.7 33.29 229.82 37.8 223.89 42.55 221.49 49.77 215.13 45.6 207.53 45.55 209.53 38.22 207.23 30.97 214.83 30.61 221.01 26.18"/><polygon class="cls-4" points="207.23 30.97 193.23 31.22 193.34 30.78 214.83 30.61 207.23 30.97"/><polygon class="cls-5" points="207.53 45.55 191.72 45.17 191.72 45.8 215.13 45.6 207.53 45.55"/><polygon class="cls-6" points="209.53 38.22 192.11 38.22 193.23 31.22 207.23 30.97 209.53 38.22"/><path class="cls-7" d="M38.1,46.8l-29.77,3,.49-23.6L36.67,28.8A68.2,68.2,0,0,1,38.1,46.8Z"/><polygon class="cls-8" points="8.82 26.18 6.13 33.29 0 37.8 5.93 42.55 8.33 49.77 14.69 45.6 22.29 45.55 20.29 38.22 22.59 30.97 15 30.61 8.82 26.18"/><polygon class="cls-4" points="22.59 30.97 36.59 31.22 36.48 30.78 15 30.61 22.59 30.97"/><polygon class="cls-5" points="22.29 45.55 38.1 45.17 38.1 45.8 14.69 45.6 22.29 45.55"/><polygon class="cls-9" points="20.29 38.22 37.72 38.22 36.59 31.22 22.59 30.97 20.29 38.22"/><path class="cls-10" d="M22.56,74.14l-.7-22.45,1.46-.52a13.29,13.29,0,0,0,7-5.92A13.88,13.88,0,0,0,32.16,38a14.43,14.43,0,0,0-9.64-13.2L21,24.26l-.7-22.45H210.72L210,24.28l-1.49.54A14.44,14.44,0,0,0,199,38a13.81,13.81,0,0,0,1.82,7.28,13.23,13.23,0,0,0,6.9,5.87l1.45.53-.7,22.48Z"/><path class="cls-11" d="M29.34,67.14,29,56.21a20.35,20.35,0,0,0,7.43-7.48,20.94,20.94,0,0,0,2.73-10.94A21.41,21.41,0,0,0,27.86,19.5L27.53,8.81h176l-.34,10.77A21.47,21.47,0,0,0,192,37.79a20.68,20.68,0,0,0,2.75,11A20.28,20.28,0,0,0,202,56.14l-.34,11Z"/><path class="cls-12" d="M22.78,76h-.22a1.82,1.82,0,0,1-1.82-1.76V74a1.8,1.8,0,0,1,1.75-1.86,1.84,1.84,0,0,1,1.43.63A1.81,1.81,0,0,1,22.78,76Z"/><path class="cls-12" d="M22.21,65a1.82,1.82,0,0,1-1.81-1.75v-.49a1.81,1.81,0,0,1,1.75-1.87A1.84,1.84,0,0,1,24,62.61l0,.49A1.82,1.82,0,0,1,22.27,65Z"/><path class="cls-12" d="M21.86,53.73A1.82,1.82,0,0,1,20.05,52v-.22A1.81,1.81,0,0,1,21.25,50l.21-.07a1.93,1.93,0,1,1,.46,3.82Z"/><path class="cls-12" d="M29.38,48.53a1.82,1.82,0,0,1-1.44-2.92l.21-.27a1.81,1.81,0,0,1,3,2.09c-.09.13-.18.26-.28.38A1.79,1.79,0,0,1,29.38,48.53Zm2.78-8.75A1.82,1.82,0,0,1,30.35,38v-.37a1.81,1.81,0,0,1,1.72-1.9A1.84,1.84,0,0,1,34,37.47l0,.44a1.83,1.83,0,0,1-1.76,1.87ZM29,31.15a1.83,1.83,0,0,1-1.42-.67l-.23-.28a1.81,1.81,0,0,1,2.77-2.34l.29.35a1.81,1.81,0,0,1-.28,2.54A1.78,1.78,0,0,1,29,31.15Z"/><path class="cls-12" d="M21.22,26.15a1.71,1.71,0,0,1-.59-.11L20.41,26a1.83,1.83,0,0,1-1.22-1.66v-.22a1.81,1.81,0,0,1,1.75-1.87,1.84,1.84,0,0,1,1.62.9,1.81,1.81,0,0,1-1.34,3Z"/><path class="cls-12" d="M20.66,15.09a1.82,1.82,0,0,1-1.81-1.75v-.49A1.81,1.81,0,0,1,20.59,11a1.83,1.83,0,0,1,1.87,1.75l0,.49a1.82,1.82,0,0,1-1.76,1.87Z"/><path class="cls-12" d="M20.31,3.85A1.82,1.82,0,0,1,18.5,2.09V1.87A1.81,1.81,0,0,1,20.31,0h.22a1.81,1.81,0,0,1,1.19,3.18,1.79,1.79,0,0,1-1.35.67Z"/><path class="cls-12" d="M200.37,3.62h-.46a1.81,1.81,0,0,1,0-3.62h.46a1.81,1.81,0,1,1,0,3.62Zm-10.58,0h-.46a1.81,1.81,0,0,1,0-3.62h.46a1.81,1.81,0,1,1,0,3.62Zm-10.57,0h-.46a1.81,1.81,0,1,1,0-3.62h.46a1.81,1.81,0,1,1,0,3.62Zm-10.58,0h-.46a1.81,1.81,0,1,1,0-3.62h.46a1.81,1.81,0,1,1,0,3.62Zm-10.58,0h-.46a1.81,1.81,0,0,1,0-3.62h.46a1.81,1.81,0,1,1,0,3.62Zm-10.58,0H147A1.81,1.81,0,0,1,147,0h.46a1.81,1.81,0,1,1,0,3.62Zm-10.58,0h-.46a1.81,1.81,0,0,1,0-3.62h.46a1.81,1.81,0,1,1,0,3.62Zm-10.58,0h-.46a1.81,1.81,0,0,1,0-3.62h.46a1.81,1.81,0,1,1,0,3.62Zm-10.58,0h-.46a1.81,1.81,0,0,1,0-3.62h.46a1.81,1.81,0,1,1,0,3.62Zm-10.58,0h-.46a1.81,1.81,0,0,1,0-3.62h.46a1.81,1.81,0,1,1,0,3.62Zm-10.57,0h-.46a1.81,1.81,0,1,1,0-3.62h.46a1.81,1.81,0,1,1,0,3.62ZM84,3.62h-.46a1.81,1.81,0,0,1,0-3.62H84a1.81,1.81,0,0,1,0,3.62Zm-10.58,0H73A1.81,1.81,0,0,1,73,0h.46a1.81,1.81,0,0,1,0,3.62Zm-10.58,0h-.46a1.81,1.81,0,0,1,0-3.62h.46a1.81,1.81,0,0,1,0,3.62Zm-10.58,0h-.46a1.81,1.81,0,0,1,0-3.62h.46a1.81,1.81,0,0,1,0,3.62Zm-10.58,0h-.46a1.81,1.81,0,1,1,0-3.62h.46a1.81,1.81,0,1,1,0,3.62Zm-10.58,0h-.46a1.81,1.81,0,1,1,0-3.62h.46a1.81,1.81,0,1,1,0,3.62Z"/><path class="cls-12" d="M210.71,3.85h-.05a1.79,1.79,0,0,1-1.35-.67,1.78,1.78,0,0,1-.63-1.37A1.81,1.81,0,0,1,210.49,0h.23a1.82,1.82,0,0,1,1.3.55,1.84,1.84,0,0,1,.51,1.32v.22A1.81,1.81,0,0,1,210.71,3.85Z"/><path class="cls-12" d="M210.36,15.1h-.06a1.81,1.81,0,0,1-1.75-1.87l0-.48a1.81,1.81,0,1,1,3.62.11l0,.49A1.8,1.8,0,0,1,210.36,15.1Z"/><path class="cls-12" d="M209.81,26.17a1.81,1.81,0,0,1-1.35-3,1.85,1.85,0,0,1,1.62-.9,1.81,1.81,0,0,1,1.76,1.86v.23a1.8,1.8,0,0,1-1.2,1.65l-.22.08A1.8,1.8,0,0,1,209.81,26.17Z"/><path class="cls-12" d="M201.73,48.46a1.82,1.82,0,0,1-1.45-.72l-.27-.39a1.8,1.8,0,0,1,.44-2.52,1.82,1.82,0,0,1,2.53.45l.2.27a1.82,1.82,0,0,1-.36,2.54A1.79,1.79,0,0,1,201.73,48.46ZM199,39.76h0a1.81,1.81,0,0,1-1.78-1.85c0-.16,0-.32,0-.47a1.81,1.81,0,1,1,3.62.21c0,.11,0,.22,0,.34A1.82,1.82,0,0,1,199,39.76Zm3.14-8.56a1.81,1.81,0,0,1-1.42-2.94l.3-.36a1.81,1.81,0,0,1,2.76,2.34l-.21.26A1.81,1.81,0,0,1,202.15,31.2Z"/><path class="cls-12" d="M209.16,53.7h0a1.81,1.81,0,0,1-1.54-1,1.76,1.76,0,0,1-.31-1.78,1.81,1.81,0,0,1,2.32-1.08l.21.08A1.8,1.8,0,0,1,211,51.71v.23A1.81,1.81,0,0,1,209.16,53.7Z"/><path class="cls-12" d="M208.81,65h-.06A1.8,1.8,0,0,1,207,63.09l0-.49a1.81,1.81,0,1,1,3.62.11l0,.49A1.8,1.8,0,0,1,208.81,65Z"/><path class="cls-12" d="M208.47,76h-.23a1.81,1.81,0,0,1-1.13-3.22,1.84,1.84,0,0,1,1.42-.63A1.81,1.81,0,0,1,210.29,74v.23A1.81,1.81,0,0,1,208.47,76Z"/><path class="cls-12" d="M198.36,76h-.44a1.82,1.82,0,1,1,0-3.63h.44a1.82,1.82,0,1,1,0,3.63ZM188,76h-.45a1.82,1.82,0,0,1,0-3.63H188A1.82,1.82,0,0,1,188,76Zm-10.33,0h-.45a1.82,1.82,0,0,1,0-3.63h.45a1.82,1.82,0,0,1,0,3.63Zm-10.33,0h-.45a1.82,1.82,0,0,1,0-3.63h.45a1.82,1.82,0,0,1,0,3.63Zm-10.33,0h-.45a1.82,1.82,0,0,1,0-3.63h.45a1.82,1.82,0,0,1,0,3.63Zm-10.33,0h-.45a1.82,1.82,0,0,1,0-3.63h.45a1.82,1.82,0,0,1,0,3.63Zm-10.33,0h-.45a1.82,1.82,0,0,1,0-3.63h.45a1.82,1.82,0,1,1,0,3.63Zm-10.32,0h-.45a1.82,1.82,0,0,1,0-3.63h.45a1.82,1.82,0,0,1,0,3.63Zm-10.33,0h-.45a1.82,1.82,0,0,1,0-3.63h.45a1.82,1.82,0,0,1,0,3.63Zm-10.33,0H105a1.82,1.82,0,0,1,0-3.63h.45a1.82,1.82,0,0,1,0,3.63ZM95.08,76h-.45a1.82,1.82,0,0,1,0-3.63h.45a1.82,1.82,0,0,1,0,3.63ZM84.75,76H84.3a1.82,1.82,0,0,1,0-3.63h.45a1.82,1.82,0,0,1,0,3.63ZM74.42,76H74a1.82,1.82,0,1,1,0-3.63h.44a1.82,1.82,0,1,1,0,3.63ZM64.1,76h-.45a1.82,1.82,0,1,1,0-3.63h.45a1.82,1.82,0,0,1,0,3.63ZM53.77,76h-.45a1.82,1.82,0,0,1,0-3.63h.45a1.82,1.82,0,0,1,0,3.63ZM43.44,76H43a1.82,1.82,0,0,1,0-3.63h.45a1.82,1.82,0,0,1,0,3.63ZM33.11,76h-.45a1.82,1.82,0,0,1,0-3.63h.45a1.82,1.82,0,0,1,0,3.63Z"/><path class="cls-13" d="M179.88,47.2c-1.58,1.93-3.85,2.3-6.11,2.53-2.61.27-5.17-.33-7.74-.63-.64-.07-.8-.58-.91-1.16-.5-2.66.11-2.1,2-1.6a14.6,14.6,0,0,0,5.77.33c.4-.06,1-.05,1.05-.58s-.49-.62-.86-.78c-1.95-.84-4-1.47-5.85-2.5a6.23,6.23,0,0,1-1.66-1.17,2.06,2.06,0,0,1,.32-3.26,7,7,0,0,1,3.51-1.28,31.11,31.11,0,0,1,8.16.64,1.7,1.7,0,0,1,1,2.4c-.22.37-.53.3-.85.24-1.14-.19-2.28-.37-3.41-.57a2.91,2.91,0,0,0-1.8.09c-.31.14-.8.13-.79.6s.39.61.71.74c1.23.5,2.48,1,3.73,1.42a8.75,8.75,0,0,1,3.77,2.6Z"/><path class="cls-13" d="M73.41,23.69H94.72c1.76,0,1.84.08,1.84,1.82V47.94c0,1.7-.14,1.84-1.86,1.84H52.19c-1.67,0-1.72-.05-1.72-1.68V25.23c0-1.44.09-1.54,1.52-1.54ZM92,40.71H85.54a1.72,1.72,0,0,0-1.18.43C81.93,43.22,79,44,75.91,44.35a17.93,17.93,0,0,1-9.09-1.3,8.93,8.93,0,0,1-5.11-4.39c-.4-.89-.17-1.29.79-1.36.36,0,.72,0,1.08,0H91.81c1.73,0,2.22-.79,1.52-2.45a8.67,8.67,0,0,0-2.74-3.54c-4.2-3.28-9.18-4.37-14.32-4.76a36.81,36.81,0,0,0-8.51.31,27.65,27.65,0,0,0-9.38,3A10.08,10.08,0,0,0,54,33.79a5.27,5.27,0,0,0-.54,4.72,10.26,10.26,0,0,0,5.09,5.21,28.13,28.13,0,0,0,9.85,3,34.68,34.68,0,0,0,19-2.54A11.38,11.38,0,0,0,92,40.71Z"/><path class="cls-13" d="M153.1,49.59c-3.07-.21-6-.34-8.62-1.84-1.72-1-2.9-2.27-2.91-4.42a5.19,5.19,0,0,1,2.89-4.71,15,15,0,0,1,9-1.64,29.58,29.58,0,0,1,5.14.53,10.81,10.81,0,0,1,3.2,1.22,5.18,5.18,0,0,1,2.52,5.33,5.12,5.12,0,0,1-3.52,4.25C158.26,49.35,155.58,49.33,153.1,49.59Zm.19-3a6.05,6.05,0,0,0,2.55-.59c2.37-.83,2.86-3.25,1-4.81-2-1.71-6.52-1.46-8.3.45a2.43,2.43,0,0,0,0,3.32C149.75,46.24,151.29,46.5,153.29,46.61Z"/><path class="cls-13" d="M133.56,37.07a22.18,22.18,0,0,1,5.64.4,2.08,2.08,0,0,1,1.17,2.88c-.21.29-.49.24-.78.19-1.31-.25-2.62-.47-3.93-.73a8.13,8.13,0,0,0-4.75.6,2.83,2.83,0,0,0-1.86,3.18,3.41,3.41,0,0,0,2.67,2.51,12.82,12.82,0,0,0,5.78.15,19.92,19.92,0,0,1,2.69-.21c.44,0,.69.12.72.58a2.4,2.4,0,0,1-2.27,2.56,38,38,0,0,1-8.53,0,11,11,0,0,1-5-1.69A5,5,0,0,1,125,39a11.16,11.16,0,0,1,5.87-2C131.84,37,132.78,37.07,133.56,37.07Z"/><path class="cls-13" d="M109.35,40.11h-2.48c-.47,0-.93.11-.94.66,0,1.28-.45,2.54,0,3.85s1,1.84,2.52,1.69c.68-.07,1.36-.15,2-.21a.68.68,0,0,1,.69.18c.43.56-.46,2.8-1.18,2.85-2.07.15-4.12.58-6.23.23-2.28-.37-3.57-1.59-3.68-3.89-.06-1.36-.07-2.73,0-4.1,0-1-.36-1.33-1.33-1.3-.51,0-1.32.36-1.5-.34s.65-.85,1.09-1.18q3.25-2.4,6.54-4.77c.28-.2.56-.55,1-.36s.28.63.29,1c.09,2.66.09,2.66,2.73,2.66,1,0,2,0,3,0,.69,0,1,.3,1,1,0,.36,0,.72,0,1.08a.84.84,0,0,1-1,1c-.83,0-1.66,0-2.49,0Z"/><path class="cls-13" d="M114.09,42.69c0-1.58.06-3.16-.13-4.74-.1-.82.25-1.27,1.14-1.32a40.1,40.1,0,0,1,4.1.25c.66,0,.79.53.76,1.08-.07,1.32-.23,2.65-.22,4,0,2.12.11,4.24.27,6.34.07,1-.32,1.3-1.21,1.29-1.12,0-2.24,0-3.35,0-1.35,0-1.67-.32-1.53-1.7C114.1,46.14,114.05,44.41,114.09,42.69Z"/><path class="cls-13" d="M116.83,31c1.77,0,3.2,1.07,3.1,2.32s-1.84,2.34-3.42,2.18-2.86-1.22-2.85-2.33S115.14,31,116.83,31Z"/><path class="cls-13" d="M73.94,34.9h-11c-.45,0-1,.14-1.26-.38s.2-.81.42-1.15a10.57,10.57,0,0,1,6.54-4.25,19.54,19.54,0,0,1,13,.8A9.7,9.7,0,0,1,86,33.6c.59.89.36,1.29-.73,1.3Z"/></g></g></g></svg>