<svg xmlns="http://www.w3.org/2000/svg" xmlns:xlink="http://www.w3.org/1999/xlink" viewBox="0 0 234.32 710.91"><defs><style>.cls-1{isolation:isolate;}.cls-10,.cls-11,.cls-12,.cls-13,.cls-14,.cls-15,.cls-16,.cls-17,.cls-18,.cls-19,.cls-2,.cls-20,.cls-21,.cls-22,.cls-23,.cls-24,.cls-25,.cls-26,.cls-27,.cls-28,.cls-29,.cls-3,.cls-30,.cls-31,.cls-32,.cls-33,.cls-34,.cls-35,.cls-36,.cls-37,.cls-38,.cls-39,.cls-4,.cls-40,.cls-41,.cls-42,.cls-43,.cls-44,.cls-45,.cls-46,.cls-47,.cls-48,.cls-49,.cls-5,.cls-50,.cls-51,.cls-52,.cls-53,.cls-54,.cls-55,.cls-56,.cls-57,.cls-58,.cls-59,.cls-6,.cls-60,.cls-61,.cls-62,.cls-63,.cls-64,.cls-65,.cls-66,.cls-67,.cls-68,.cls-69,.cls-7,.cls-70,.cls-71,.cls-72,.cls-73,.cls-74,.cls-8,.cls-9{fill-rule:evenodd;}.cls-2{fill:url(#Áåçûìÿííûé_ãðàäèåíò_202);}.cls-3{fill:#d45d66;}.cls-4{fill:url(#Áåçûìÿííûé_ãðàäèåíò_303);}.cls-5{fill:url(#Áåçûìÿííûé_ãðàäèåíò_202-2);}.cls-6{fill:url(#Áåçûìÿííûé_ãðàäèåíò_202-3);}.cls-7{fill:url(#Áåçûìÿííûé_ãðàäèåíò_202-4);}.cls-8{fill:url(#Áåçûìÿííûé_ãðàäèåíò_202-5);}.cls-9{fill:url(#Áåçûìÿííûé_ãðàäèåíò_202-6);}.cls-10{fill:url(#Áåçûìÿííûé_ãðàäèåíò_202-7);}.cls-11{fill:url(#Áåçûìÿííûé_ãðàäèåíò_4);}.cls-12{fill:url(#Áåçûìÿííûé_ãðàäèåíò_4-2);}.cls-13{fill:url(#Áåçûìÿííûé_ãðàäèåíò_300);}.cls-14{fill:url(#Áåçûìÿííûé_ãðàäèåíò_301);}.cls-15{fill:#ffe7b1;}.cls-15,.cls-28,.cls-38{mix-blend-mode:soft-light;}.cls-16{fill:url(#Áåçûìÿííûé_ãðàäèåíò_301-2);}.cls-17{fill:url(#Áåçûìÿííûé_ãðàäèåíò_7);}.cls-18{fill:url(#Áåçûìÿííûé_ãðàäèåíò_7-2);}.cls-19{fill:url(#Áåçûìÿííûé_ãðàäèåíò_7-3);}.cls-20{fill:url(#Áåçûìÿííûé_ãðàäèåíò_7-4);}.cls-21{fill:url(#Áåçûìÿííûé_ãðàäèåíò_7-5);}.cls-22{fill:url(#Áåçûìÿííûé_ãðàäèåíò_202-8);}.cls-23{fill:url(#Áåçûìÿííûé_ãðàäèåíò_68);}.cls-24{fill:url(#Áåçûìÿííûé_ãðàäèåíò_68-2);}.cls-25{fill:url(#Áåçûìÿííûé_ãðàäèåíò_221);}.cls-26{fill:url(#Áåçûìÿííûé_ãðàäèåíò_233);}.cls-27{fill:url(#Áåçûìÿííûé_ãðàäèåíò_233-2);}.cls-28{fill:#ffffb1;}.cls-29{fill:url(#Áåçûìÿííûé_ãðàäèåíò_233-3);}.cls-30{fill:url(#Áåçûìÿííûé_ãðàäèåíò_233-4);}.cls-31{fill:url(#Áåçûìÿííûé_ãðàäèåíò_221-2);}.cls-32{fill:url(#Áåçûìÿííûé_ãðàäèåíò_220);}.cls-33{fill:url(#Áåçûìÿííûé_ãðàäèåíò_2);}.cls-34{fill:url(#Áåçûìÿííûé_ãðàäèåíò_2-2);}.cls-35{fill:url(#Áåçûìÿííûé_ãðàäèåíò_274);}.cls-36{fill:url(#Áåçûìÿííûé_ãðàäèåíò_268);}.cls-37{fill:url(#Áåçûìÿííûé_ãðàäèåíò_268-2);}.cls-38{fill:#ffb3b1;}.cls-39{fill:url(#Áåçûìÿííûé_ãðàäèåíò_268-3);}.cls-40{fill:url(#Áåçûìÿííûé_ãðàäèåíò_268-4);}.cls-41{fill:url(#Áåçûìÿííûé_ãðàäèåíò_274-2);}.cls-42{fill:url(#Áåçûìÿííûé_ãðàäèåíò_266);}.cls-43{fill:url(#Áåçûìÿííûé_ãðàäèåíò_4-3);}.cls-44{fill:url(#Áåçûìÿííûé_ãðàäèåíò_4-4);}.cls-45{fill:url(#Áåçûìÿííûé_ãðàäèåíò_300-2);}.cls-46{fill:url(#Áåçûìÿííûé_ãðàäèåíò_301-3);}.cls-47{fill:url(#Áåçûìÿííûé_ãðàäèåíò_301-4);}.cls-48{fill:url(#Áåçûìÿííûé_ãðàäèåíò_301-5);}.cls-49{fill:url(#Áåçûìÿííûé_ãðàäèåíò_301-6);}.cls-50{fill:url(#Áåçûìÿííûé_ãðàäèåíò_300-3);}.cls-51{fill:url(#Áåçûìÿííûé_ãðàäèåíò_299);}.cls-52{fill:url(#Áåçûìÿííûé_ãðàäèåíò_2-3);}.cls-53{fill:url(#Áåçûìÿííûé_ãðàäèåíò_2-4);}.cls-54{fill:url(#Áåçûìÿííûé_ãðàäèåíò_274-3);}.cls-55{fill:url(#Áåçûìÿííûé_ãðàäèåíò_268-5);}.cls-56{fill:url(#Áåçûìÿííûé_ãðàäèåíò_268-6);}.cls-57{fill:url(#Áåçûìÿííûé_ãðàäèåíò_268-7);}.cls-58{fill:url(#Áåçûìÿííûé_ãðàäèåíò_268-8);}.cls-59{fill:url(#Áåçûìÿííûé_ãðàäèåíò_274-4);}.cls-60{fill:url(#Áåçûìÿííûé_ãðàäèåíò_266-2);}.cls-61{fill:url(#Áåçûìÿííûé_ãðàäèåíò_68-3);}.cls-62{fill:url(#Áåçûìÿííûé_ãðàäèåíò_68-4);}.cls-63{fill:url(#Áåçûìÿííûé_ãðàäèåíò_221-3);}.cls-64{fill:url(#Áåçûìÿííûé_ãðàäèåíò_233-5);}.cls-65{fill:url(#Áåçûìÿííûé_ãðàäèåíò_233-6);}.cls-66{fill:url(#Áåçûìÿííûé_ãðàäèåíò_233-7);}.cls-67{fill:url(#Áåçûìÿííûé_ãðàäèåíò_233-8);}.cls-68{fill:url(#Áåçûìÿííûé_ãðàäèåíò_221-4);}.cls-69{fill:url(#Áåçûìÿííûé_ãðàäèåíò_220-2);}.cls-70{fill:url(#Áåçûìÿííûé_ãðàäèåíò_92);}.cls-71{fill:url(#Áåçûìÿííûé_ãðàäèåíò_7-6);}.cls-72{fill:url(#Áåçûìÿííûé_ãðàäèåíò_68-5);}.cls-73{fill:url(#Áåçûìÿííûé_ãðàäèåíò_220-3);}.cls-74{fill:url(#Áåçûìÿííûé_ãðàäèåíò_220-4);}</style><radialGradient id="Áåçûìÿííûé_ãðàäèåíò_202" cx="211.07" cy="250.34" r="135.54" gradientUnits="userSpaceOnUse"><stop offset="0" stop-color="#ffa772"/><stop offset="1" stop-color="#ea697f"/></radialGradient><linearGradient id="Áåçûìÿííûé_ãðàäèåíò_303" x1="61.27" y1="501.94" x2="221.95" y2="501.94" gradientUnits="userSpaceOnUse"><stop offset="0" stop-color="#ffb881"/><stop offset="1" stop-color="#ff818b"/></linearGradient><radialGradient id="Áåçûìÿííûé_ãðàäèåíò_202-2" cx="146.13" cy="225.95" r="122.24" gradientTransform="matrix(1.04, 0.02, -0.02, 1, 48.26, 10.45)" xlink:href="#Áåçûìÿííûé_ãðàäèåíò_202"/><radialGradient id="Áåçûìÿííûé_ãðàäèåíò_202-3" cx="186.29" cy="252.78" r="161.31" gradientTransform="matrix(1.04, 0.02, -0.02, 1, 48.26, 10.45)" xlink:href="#Áåçûìÿííûé_ãðàäèåíò_202"/><radialGradient id="Áåçûìÿííûé_ãðàäèåíò_202-4" cx="161.15" cy="203.35" r="139.92" gradientTransform="matrix(1.04, 0.02, -0.02, 1, 48.26, 10.45)" xlink:href="#Áåçûìÿííûé_ãðàäèåíò_202"/><radialGradient id="Áåçûìÿííûé_ãðàäèåíò_202-5" cx="182.48" cy="215.59" r="161.26" gradientTransform="matrix(1.04, 0.02, -0.02, 1, 48.26, 10.45)" xlink:href="#Áåçûìÿííûé_ãðàäèåíò_202"/><radialGradient id="Áåçûìÿííûé_ãðàäèåíò_202-6" cx="169.08" cy="272.42" r="146.26" gradientTransform="matrix(1.04, 0.02, -0.02, 1, 48.26, 10.45)" xlink:href="#Áåçûìÿííûé_ãðàäèåíò_202"/><radialGradient id="Áåçûìÿííûé_ãðàäèåíò_202-7" cx="148.6" cy="253.82" r="125.36" gradientTransform="matrix(1.04, 0.02, -0.02, 1, 48.26, 10.45)" xlink:href="#Áåçûìÿííûé_ãðàäèåíò_202"/><radialGradient id="Áåçûìÿííûé_ãðàäèåíò_4" cx="-1607.68" cy="542.07" r="21.52" gradientTransform="matrix(-1, 0, 0, 1, -1354.56, 0)" gradientUnits="userSpaceOnUse"><stop offset="0" stop-color="#f73bff"/><stop offset="0.99" stop-color="#7802bf"/></radialGradient><radialGradient id="Áåçûìÿííûé_ãðàäèåíò_4-2" cx="-1594.02" cy="497.59" r="23.15" xlink:href="#Áåçûìÿííûé_ãðàäèåíò_4"/><linearGradient id="Áåçûìÿííûé_ãðàäèåíò_300" x1="-1576.39" y1="522.51" x2="-1576.39" y2="516.13" gradientTransform="matrix(-1, 0, 0, 1, -1354.56, 0)" gradientUnits="userSpaceOnUse"><stop offset="0" stop-color="#8209bb"/><stop offset="1" stop-color="#5e007c"/></linearGradient><linearGradient id="Áåçûìÿííûé_ãðàäèåíò_301" x1="-1580.96" y1="519.62" x2="-1580.96" y2="492.39" gradientTransform="matrix(-1, 0, 0, 1, -1354.56, 0)" gradientUnits="userSpaceOnUse"><stop offset="0" stop-color="#ff5050"/><stop offset="1" stop-color="#ff7b68"/></linearGradient><linearGradient id="Áåçûìÿííûé_ãðàäèåíò_301-2" x1="-1577.78" y1="553.6" x2="-1577.78" y2="535.44" xlink:href="#Áåçûìÿííûé_ãðàäèåíò_301"/><radialGradient id="Áåçûìÿííûé_ãðàäèåíò_7" cx="246.7" cy="238.87" r="122.24" gradientUnits="userSpaceOnUse"><stop offset="0" stop-color="#ff2a22"/><stop offset="0.99" stop-color="#bf003b"/></radialGradient><radialGradient id="Áåçûìÿííûé_ãðàäèåíò_7-2" cx="261.72" cy="216.27" r="139.92" xlink:href="#Áåçûìÿííûé_ãðàäèåíò_7"/><radialGradient id="Áåçûìÿííûé_ãðàäèåíò_7-3" cx="283.05" cy="228.5" r="161.27" xlink:href="#Áåçûìÿííûé_ãðàäèåíò_7"/><radialGradient id="Áåçûìÿííûé_ãðàäèåíò_7-4" cx="270.28" cy="284.41" r="145.48" xlink:href="#Áåçûìÿííûé_ãðàäèåíò_7"/><radialGradient id="Áåçûìÿííûé_ãðàäèåíò_7-5" cx="249.81" cy="266.44" r="124.86" xlink:href="#Áåçûìÿííûé_ãðàäèåíò_7"/><radialGradient id="Áåçûìÿííûé_ãðàäèåíò_202-8" cx="44.12" cy="201.34" r="16.18" xlink:href="#Áåçûìÿííûé_ãðàäèåíò_202"/><radialGradient id="Áåçûìÿííûé_ãðàäèåíò_68" cx="-1433.59" cy="404.74" r="28.68" gradientTransform="matrix(-1, 0, 0, 1, -1354.56, 0)" gradientUnits="userSpaceOnUse"><stop offset="0" stop-color="#ff3b3e"/><stop offset="0.99" stop-color="#bf0244"/></radialGradient><radialGradient id="Áåçûìÿííûé_ãðàäèåíò_68-2" cx="-1415.38" cy="345.46" r="30.85" xlink:href="#Áåçûìÿííûé_ãðàäèåíò_68"/><linearGradient id="Áåçûìÿííûé_ãðàäèåíò_221" x1="-1414.74" y1="378.68" x2="-1414.74" y2="370.16" gradientTransform="matrix(-1, 0, 0, 1, -1354.56, 0)" gradientUnits="userSpaceOnUse"><stop offset="0" stop-color="#bb093d"/><stop offset="1" stop-color="#7c001b"/></linearGradient><linearGradient id="Áåçûìÿííûé_ãðàäèåíò_233" x1="-1429.2" y1="374.82" x2="-1429.2" y2="338.53" gradientTransform="matrix(-1, 0, 0, 1, -1354.56, 0)" gradientUnits="userSpaceOnUse"><stop offset="0" stop-color="#ff9a50"/><stop offset="1" stop-color="#ffbb68"/></linearGradient><linearGradient id="Áåçûìÿííûé_ãðàäèåíò_233-2" x1="-1401.47" y1="374.82" x2="-1401.47" y2="338.53" xlink:href="#Áåçûìÿííûé_ãðàäèåíò_233"/><linearGradient id="Áåçûìÿííûé_ãðàäèåíò_233-3" x1="-1432.74" y1="420.11" x2="-1432.74" y2="395.84" xlink:href="#Áåçûìÿííûé_ãðàäèåíò_233"/><linearGradient id="Áåçûìÿííûé_ãðàäèåíò_233-4" x1="-1393.74" y1="420.11" x2="-1393.74" y2="395.91" xlink:href="#Áåçûìÿííûé_ãðàäèåíò_233"/><linearGradient id="Áåçûìÿííûé_ãðàäèåíò_221-2" x1="-1414.74" y1="395.89" x2="-1414.74" y2="370.19" xlink:href="#Áåçûìÿííûé_ãðàäèåíò_221"/><linearGradient id="Áåçûìÿííûé_ãðàäèåíò_220" x1="61.11" y1="340.11" x2="61.11" y2="333.59" gradientUnits="userSpaceOnUse"><stop offset="0" stop-color="#7c001b"/><stop offset="1" stop-color="#bb093d"/></linearGradient><radialGradient id="Áåçûìÿííûé_ãðàäèåíò_2" cx="-1497.65" cy="516.49" r="26.08" gradientTransform="matrix(-1, 0, 0, 1, -1354.56, 0)" gradientUnits="userSpaceOnUse"><stop offset="0" stop-color="#3b68ff"/><stop offset="0.99" stop-color="#026dbf"/></radialGradient><radialGradient id="Áåçûìÿííûé_ãðàäèåíò_2-2" cx="-1481.09" cy="462.59" r="28.05" xlink:href="#Áåçûìÿííûé_ãðàäèåíò_2"/><linearGradient id="Áåçûìÿííûé_ãðàäèåíò_274" x1="-1480.5" y1="492.8" x2="-1480.5" y2="485.05" gradientTransform="matrix(-1, 0, 0, 1, -1354.56, 0)" gradientUnits="userSpaceOnUse"><stop offset="0" stop-color="#09407e"/><stop offset="1" stop-color="#00297c"/></linearGradient><linearGradient id="Áåçûìÿííûé_ãðàäèåíò_268" x1="-1493.66" y1="489.28" x2="-1493.66" y2="456.28" gradientTransform="matrix(-1, 0, 0, 1, -1354.56, 0)" gradientUnits="userSpaceOnUse"><stop offset="0" stop-color="#9350ff"/><stop offset="1" stop-color="#bd68ff"/></linearGradient><linearGradient id="Áåçûìÿííûé_ãðàäèåíò_268-2" x1="-1468.44" y1="489.29" x2="-1468.44" y2="456.28" xlink:href="#Áåçûìÿííûé_ãðàäèåíò_268"/><linearGradient id="Áåçûìÿííûé_ãðàäèåíò_268-3" x1="-1496.87" y1="530.46" x2="-1496.87" y2="508.39" xlink:href="#Áåçûìÿííûé_ãðàäèåíò_268"/><linearGradient id="Áåçûìÿííûé_ãðàäèåíò_268-4" x1="-1461.41" y1="530.46" x2="-1461.41" y2="508.46" xlink:href="#Áåçûìÿííûé_ãðàäèåíò_268"/><linearGradient id="Áåçûìÿííûé_ãðàäèåíò_274-2" x1="-1480.5" y1="508.44" x2="-1480.5" y2="485.07" xlink:href="#Áåçûìÿííûé_ãðàäèåíò_274"/><linearGradient id="Áåçûìÿííûé_ãðàäèåíò_266" x1="126.79" y1="457.72" x2="126.79" y2="451.8" gradientUnits="userSpaceOnUse"><stop offset="0" stop-color="#00357c"/><stop offset="1" stop-color="#0963bb"/></linearGradient><radialGradient id="Áåçûìÿííûé_ãðàäèåíò_4-3" cx="-1420.32" cy="268.71" r="28.68" xlink:href="#Áåçûìÿííûé_ãðàäèåíò_4"/><radialGradient id="Áåçûìÿííûé_ãðàäèåíò_4-4" cx="-1402.11" cy="209.43" r="30.85" xlink:href="#Áåçûìÿííûé_ãðàäèåíò_4"/><linearGradient id="Áåçûìÿííûé_ãðàäèåíò_300-2" x1="-1401.47" y1="242.65" x2="-1401.47" y2="234.13" xlink:href="#Áåçûìÿííûé_ãðàäèåíò_300"/><linearGradient id="Áåçûìÿííûé_ãðàäèåíò_301-3" x1="-1415.94" y1="238.78" x2="-1415.94" y2="202.49" xlink:href="#Áåçûìÿííûé_ãðàäèåíò_301"/><linearGradient id="Áåçûìÿííûé_ãðàäèåíò_301-4" x1="-1388.2" y1="238.79" x2="-1388.2" y2="202.49" xlink:href="#Áåçûìÿííûé_ãðàäèåíò_301"/><linearGradient id="Áåçûìÿííûé_ãðàäèåíò_301-5" x1="-1419.47" y1="284.07" x2="-1419.47" y2="259.8" xlink:href="#Áåçûìÿííûé_ãðàäèåíò_301"/><linearGradient id="Áåçûìÿííûé_ãðàäèåíò_301-6" x1="-1380.47" y1="284.07" x2="-1380.47" y2="259.87" xlink:href="#Áåçûìÿííûé_ãðàäèåíò_301"/><linearGradient id="Áåçûìÿííûé_ãðàäèåíò_300-3" x1="-1401.47" y1="259.86" x2="-1401.47" y2="234.15" xlink:href="#Áåçûìÿííûé_ãðàäèåíò_300"/><linearGradient id="Áåçûìÿííûé_ãðàäèåíò_299" x1="47.84" y1="204.08" x2="47.84" y2="197.56" gradientUnits="userSpaceOnUse"><stop offset="0" stop-color="#5e007c"/><stop offset="1" stop-color="#8209bb"/></linearGradient><radialGradient id="Áåçûìÿííûé_ãðàäèåíò_2-3" cx="-1471.3" cy="144.37" r="28.68" xlink:href="#Áåçûìÿííûé_ãðàäèåíò_2"/><radialGradient id="Áåçûìÿííûé_ãðàäèåíò_2-4" cx="-1453.09" cy="85.09" r="30.85" xlink:href="#Áåçûìÿííûé_ãðàäèåíò_2"/><linearGradient id="Áåçûìÿííûé_ãðàäèåíò_274-3" x1="-1452.45" y1="118.31" x2="-1452.45" y2="109.79" xlink:href="#Áåçûìÿííûé_ãðàäèåíò_274"/><linearGradient id="Áåçûìÿííûé_ãðàäèåíò_268-5" x1="-1466.91" y1="114.44" x2="-1466.91" y2="78.15" xlink:href="#Áåçûìÿííûé_ãðàäèåíò_268"/><linearGradient id="Áåçûìÿííûé_ãðàäèåíò_268-6" x1="-1439.18" y1="114.44" x2="-1439.18" y2="78.15" xlink:href="#Áåçûìÿííûé_ãðàäèåíò_268"/><linearGradient id="Áåçûìÿííûé_ãðàäèåíò_268-7" x1="-1470.45" y1="159.73" x2="-1470.45" y2="135.46" xlink:href="#Áåçûìÿííûé_ãðàäèåíò_268"/><linearGradient id="Áåçûìÿííûé_ãðàäèåíò_268-8" x1="-1431.45" y1="159.73" x2="-1431.45" y2="135.53" xlink:href="#Áåçûìÿííûé_ãðàäèåíò_268"/><linearGradient id="Áåçûìÿííûé_ãðàäèåíò_274-4" x1="-1452.45" y1="135.51" x2="-1452.45" y2="109.81" xlink:href="#Áåçûìÿííûé_ãðàäèåíò_274"/><linearGradient id="Áåçûìÿííûé_ãðàäèåíò_266-2" x1="98.82" y1="79.73" x2="98.82" y2="73.22" xlink:href="#Áåçûìÿííûé_ãðàäèåíò_266"/><radialGradient id="Áåçûìÿííûé_ãðàäèåíò_68-3" cx="-1565.8" cy="70.47" r="25.77" xlink:href="#Áåçûìÿííûé_ãðàäèåíò_68"/><radialGradient id="Áåçûìÿííûé_ãðàäèåíò_68-4" cx="-1549.44" cy="17.22" r="27.71" xlink:href="#Áåçûìÿííûé_ãðàäèåíò_68"/><linearGradient id="Áåçûìÿííûé_ãðàäèåíò_221-3" x1="-1548.86" y1="47.06" x2="-1548.86" y2="39.41" xlink:href="#Áåçûìÿííûé_ãðàäèåíò_221"/><linearGradient id="Áåçûìÿííûé_ãðàäèåíò_233-5" x1="-1561.86" y1="43.59" x2="-1561.86" y2="10.99" xlink:href="#Áåçûìÿííûé_ãðàäèåíò_233"/><linearGradient id="Áåçûìÿííûé_ãðàäèåíò_233-6" x1="-1536.94" y1="43.59" x2="-1536.94" y2="10.99" xlink:href="#Áåçûìÿííûé_ãðàäèåíò_233"/><linearGradient id="Áåçûìÿííûé_ãðàäèåíò_233-7" x1="-1565.04" y1="84.28" x2="-1565.04" y2="62.47" xlink:href="#Áåçûìÿííûé_ãðàäèåíò_233"/><linearGradient id="Áåçûìÿííûé_ãðàäèåíò_233-8" x1="-1530" y1="84.28" x2="-1530" y2="62.54" xlink:href="#Áåçûìÿííûé_ãðàäèåíò_233"/><linearGradient id="Áåçûìÿííûé_ãðàäèåíò_221-4" x1="-1548.86" y1="62.52" x2="-1548.86" y2="39.43" xlink:href="#Áåçûìÿííûé_ãðàäèåíò_221"/><linearGradient id="Áåçûìÿííûé_ãðàäèåíò_220-2" x1="195.14" y1="12.41" x2="195.14" y2="6.56" xlink:href="#Áåçûìÿííûé_ãðàäèåíò_220"/><linearGradient id="Áåçûìÿííûé_ãðàäèåíò_92" x1="150.24" y1="499.98" x2="150.24" y2="0.06" gradientUnits="userSpaceOnUse"><stop offset="0" stop-color="#ff818b"/><stop offset="1" stop-color="#ffb881"/></linearGradient><radialGradient id="Áåçûìÿííûé_ãðàäèåíò_7-6" cx="242.26" cy="250.01" r="135.83" xlink:href="#Áåçûìÿííûé_ãðàäèåíò_7"/><radialGradient id="Áåçûìÿííûé_ãðàäèåíò_68-5" cx="198.32" cy="849.9" r="93.5" gradientTransform="translate(0 -1008.35) scale(1 1.77)" xlink:href="#Áåçûìÿííûé_ãðàäèåíò_68"/><linearGradient id="Áåçûìÿííûé_ãðàäèåíò_220-3" x1="181.45" y1="710.91" x2="181.45" y2="286.65" xlink:href="#Áåçûìÿííûé_ãðàäèåíò_220"/><linearGradient id="Áåçûìÿííûé_ãðàäèåíò_220-4" x1="232.05" y1="308.76" x2="232.05" y2="186.3" xlink:href="#Áåçûìÿííûé_ãðàäèåíò_220"/></defs><g class="cls-1"><g id="Capa_2" data-name="Capa 2"><g id="circus"><path class="cls-2" d="M234.32,399.61a75.91,75.91,0,0,1-14.72,2.08C160.88,404.12,110.48,338.33,107,254.74S148.35,101.43,207.07,99a76.91,76.91,0,0,1,27.25,3.84v-4.7a79.88,79.88,0,0,0-29.74-4.51C143.78,96.15,97.4,168.35,101,254.9s55.77,154.67,116.57,152.15a78.82,78.82,0,0,0,16.77-2.53Z"/><polygon class="cls-3" points="234.32 311.44 230.85 316.44 234.32 346.42 234.32 311.44"/><path class="cls-4" d="M61.27,710.91,212.17,293s4.8,7.88,9.78,16.7L108.72,710.91Z"/><polygon class="cls-3" points="61.27 710.91 47.88 710.39 210.91 284.89 212.17 292.96 61.27 710.91"/><polygon class="cls-5" points="234.32 246.82 21.91 198.89 21.37 202.85 234.32 249.3 234.32 246.82"/><polygon class="cls-6" points="234.32 277.02 190.05 489.34 194.44 490.06 234.32 293.52 234.32 277.02"/><polygon class="cls-7" points="234.32 236.38 71.74 74.31 69.16 77.78 234.32 240.6 234.32 236.38"/><polygon class="cls-8" points="234.32 224.5 168.56 10.72 166.2 11.15 234.32 233.6 234.32 224.5"/><polygon class="cls-9" points="234.32 262.63 96.98 451.99 101.33 455.85 234.32 268.49 234.32 262.63"/><polygon class="cls-10" points="234.32 250.82 29.23 334.53 29.89 336.95 234.32 253.18 234.32 250.82"/><path class="cls-3" d="M234.32,481a139.89,139.89,0,0,1-50.85,9C85.8,488.46,7.77,380.19,9.2,248.1S91,10.13,188.61,11.59a139.49,139.49,0,0,1,45.71,8.6V9.83A163.41,163.41,0,0,0,184.93.1C82.72-3.88,1.51,109.45,0,247.77S77.26,499.47,179.54,501a160.59,160.59,0,0,0,54.78-8.9Z"/><path class="cls-3" d="M234.32,488a134.74,134.74,0,0,1-39.46,5.31c-98.78-1.49-177.69-111-176.25-244.57S101.29,8,200.06,9.5a135.25,135.25,0,0,1,34.26,5V6.62a140,140,0,0,0-38-5.9C94.07-.81,10,110.07,8.46,248.39S88.68,500.09,191,501.62a139.56,139.56,0,0,0,43.36-6.25Z"/><path class="cls-11" d="M234.32,535.43l-23.8,0c2.1,14,8,18.14,8,18.14h15.83Z"/><path class="cls-12" d="M234.32,495.72l-23.8,15.12-1.16,9.4s9.17-2.13,25-2.37Z"/><path class="cls-13" d="M234.32,516.18c-15.53.48-25,4.06-25,4.06a202.17,202.17,0,0,0,25,2.2Z"/><path class="cls-14" d="M234.32,496.48l-15.83,12.37v9s6.38,4.82,13.29-1.59l.44-9.2,2.1-4.2Z"/><path class="cls-15" d="M234.32,495.72l-23.8,15.12a95.65,95.65,0,0,1,23.8-3.84Z"/><path class="cls-16" d="M225.73,535.44A63.44,63.44,0,0,0,231,553.6h-6.8a29.76,29.76,0,0,1-8.7-18.15Z"/><path class="cls-3" d="M234.32,191.13c-21.51,1.5-37.81,27.24-36.53,58,1.18,28.55,17.05,51.5,36.53,54.49Z"/><polygon class="cls-17" points="234.32 235.43 78.31 201.76 77.86 205.74 234.32 238.28 234.32 235.43"/><polygon class="cls-18" points="234.32 186.54 124.22 76.35 121.79 79.86 234.32 191.24 234.32 186.54"/><polygon class="cls-19" points="234.32 68.32 216.34 11.11 214.08 11.58 234.32 76.27 234.32 68.32"/><polygon class="cls-20" points="234.32 335.32 155.98 451.68 160.2 455.47 234.32 342.95 234.32 335.32"/><polygon class="cls-21" points="234.32 271.98 88.85 336.7 89.58 339.08 234.32 274.43 234.32 271.98"/><polygon class="cls-22" points="21.91 198.89 66.86 198.89 66.17 203.8 21.37 202.85 21.91 198.89"/><polygon class="cls-3" points="29.89 336.95 89.58 339.08 88.85 336.7 29.23 334.53 29.89 336.95"/><polygon class="cls-3" points="101.33 455.85 160.2 455.47 155.98 451.68 96.98 451.99 101.33 455.85"/><path class="cls-23" d="M86.75,420.11H32.87s-7.82-5.52-10.62-24.18l77.41-.09S99.66,412.12,86.75,420.11Z"/><path class="cls-24" d="M99.66,363.12,61,338.53,22.25,363.12,20.7,375.65s30.86-7.17,79,0Z"/><path class="cls-25" d="M99.66,375.65s-34.07,6.83-79,0C20.7,375.65,53.18,363.31,99.66,375.65Z"/><path class="cls-26" d="M88.34,373.06V360.49L61,338.53l8.64,19.64-.24,12.39S71.53,378.15,88.34,373.06Z"/><path class="cls-27" d="M61,338.53,32.87,360.47v12s8.5,6.43,17.71-2.12l.59-12.26Z"/><path class="cls-28" d="M99.66,363.12s-38-11.84-77.41,0L61,338.53Z"/><path class="cls-29" d="M88.34,395.85A67.44,67.44,0,0,1,78,420.11H68a75.42,75.42,0,0,0,4.52-24.27Z"/><path class="cls-30" d="M42.52,395.91a84.66,84.66,0,0,0,7,24.2H40.46a39.67,39.67,0,0,1-11.6-24.18Z"/><polygon class="cls-31" points="62.51 370.19 62.51 395.84 58.1 395.89 57.85 370.19 62.51 370.19"/><polygon class="cls-32" points="58.46 340.11 58.1 333.59 64.12 333.59 63.45 340.11 58.46 340.11"/><path class="cls-33" d="M150.11,530.46h-49s-7.11-5-9.65-22l70.39-.09S161.85,523.2,150.11,530.46Z"/><path class="cls-34" d="M161.85,478.65l-35.2-22.37L91.46,478.65,90.05,490s28.06-6.52,71.8,0Z"/><path class="cls-35" d="M161.85,490s-31,6.21-71.8,0C90.05,490,119.58,478.82,161.85,490Z"/><path class="cls-36" d="M151.55,487.68V476.25l-24.9-20,7.86,17.87-.21,11.26S136.27,492.31,151.55,487.68Z"/><path class="cls-37" d="M126.65,456.28l-25.54,20v10.94s7.74,5.84,16.11-1.93l.53-11.15Z"/><path class="cls-38" d="M161.85,478.65s-34.52-10.77-70.39,0l35.19-22.37Z"/><path class="cls-39" d="M151.55,508.41a61.14,61.14,0,0,1-9.37,22.05h-9.1a68.28,68.28,0,0,0,4.11-22.07Z"/><path class="cls-40" d="M109.89,508.46a77,77,0,0,0,6.36,22H108a36.06,36.06,0,0,1-10.55-22Z"/><polygon class="cls-41" points="128.07 485.07 128.07 508.39 124.06 508.44 123.83 485.07 128.07 485.07"/><polygon class="cls-42" points="124.39 457.72 124.05 451.8 129.53 451.8 128.92 457.72 124.39 457.72"/><path class="cls-43" d="M73.48,284.07H19.6S11.78,278.56,9,259.9l77.42-.1S86.4,276.09,73.48,284.07Z"/><path class="cls-44" d="M86.4,227.09l-38.71-24.6L9,227.09,7.43,239.61s30.86-7.17,79,0Z"/><path class="cls-45" d="M86.4,239.61s-34.08,6.83-79,0C7.43,239.61,39.91,227.28,86.4,239.61Z"/><path class="cls-46" d="M75.07,237V224.45l-27.38-22,8.64,19.65-.24,12.39S58.26,242.12,75.07,237Z"/><path class="cls-47" d="M47.69,202.49,19.6,224.44v12s8.51,6.43,17.72-2.12l.58-12.27Z"/><path class="cls-15" d="M86.4,227.09s-38-11.84-77.42,0l38.71-24.6Z"/><path class="cls-48" d="M75.07,259.82a67.23,67.23,0,0,1-10.3,24.25h-10a75.1,75.1,0,0,0,4.52-24.27Z"/><path class="cls-49" d="M29.25,259.87a84.66,84.66,0,0,0,7,24.2H27.19a39.63,39.63,0,0,1-11.6-24.18Z"/><polygon class="cls-50" points="49.24 234.15 49.24 259.8 44.83 259.86 44.58 234.15 49.24 234.15"/><polygon class="cls-51" points="45.19 204.08 44.83 197.56 50.85 197.56 50.18 204.08 45.19 204.08"/><path class="cls-52" d="M124.46,159.73H70.58S62.76,154.22,60,135.56l77.41-.1S137.37,151.74,124.46,159.73Z"/><path class="cls-53" d="M137.37,102.74,98.67,78.15,60,102.74l-1.55,12.53s30.86-7.17,79,0Z"/><path class="cls-54" d="M137.37,115.27s-34.07,6.83-79,0C58.41,115.27,90.89,102.94,137.37,115.27Z"/><path class="cls-55" d="M126.05,112.68V100.11l-27.38-22,8.64,19.65-.24,12.38S109.24,117.77,126.05,112.68Z"/><path class="cls-56" d="M98.67,78.15,70.58,100.09v12s8.5,6.42,17.71-2.13l.59-12.26Z"/><path class="cls-38" d="M137.37,102.74s-38-11.83-77.41,0L98.67,78.15Z"/><path class="cls-57" d="M126.05,135.47a67.37,67.37,0,0,1-10.31,24.26h-10a75.42,75.42,0,0,0,4.52-24.27Z"/><path class="cls-58" d="M80.23,135.53a84.66,84.66,0,0,0,7,24.2H78.17a39.67,39.67,0,0,1-11.6-24.18Z"/><polygon class="cls-59" points="100.22 109.81 100.22 135.46 95.81 135.51 95.56 109.81 100.22 109.81"/><polygon class="cls-60" points="96.17 79.73 95.81 73.22 101.83 73.22 101.16 79.73 96.17 79.73"/><path class="cls-61" d="M218.18,84.28H169.77s-7-5-9.54-21.72l69.55-.09S229.78,77.1,218.18,84.28Z"/><path class="cls-62" d="M229.78,33.08,195,11,160.23,33.08l-1.39,11.25s27.73-6.43,70.94,0Z"/><path class="cls-63" d="M229.78,44.33s-30.62,6.14-70.94,0C158.84,44.33,188,33.26,229.78,44.33Z"/><path class="cls-64" d="M219.61,42V30.72L195,11l7.77,17.65-.21,11.13S204.51,46.59,219.61,42Z"/><path class="cls-65" d="M195,11,169.77,30.7V41.51s7.64,5.78,15.92-1.91l.52-11Z"/><path class="cls-28" d="M229.78,33.08s-34.11-10.63-69.55,0L195,11Z"/><path class="cls-66" d="M219.61,62.49a60.51,60.51,0,0,1-9.26,21.79h-9a67.61,67.61,0,0,0,4.06-21.81Z"/><path class="cls-67" d="M178.44,62.54a76.1,76.1,0,0,0,6.29,21.74h-8.14a35.63,35.63,0,0,1-10.42-21.73Z"/><polygon class="cls-68" points="196.4 39.43 196.4 62.47 192.44 62.52 192.21 39.43 196.4 39.43"/><polygon class="cls-69" points="192.76 12.41 192.44 6.56 197.85 6.56 197.25 12.41 192.76 12.41"/><polygon class="cls-3" points="71.56 80.15 121.79 79.86 124.22 76.35 74.45 76.35 71.56 80.15"/><path class="cls-3" d="M234.32,489.24c-88.1-4.14-161.91-105-167.16-231.95-5.46-132,65.26-242.06,158-245.9,3.08-.13,6.14-.13,9.19,0V.29A127.65,127.65,0,0,0,221.05.11c-97.09,4-168,119.31-162.27,257.51,5.58,134.65,81.83,241.34,175.54,243Z"/><path class="cls-70" d="M234.32,491C150.08,479.38,81.21,380.47,76.12,257.37c-5.5-132.72,65.21-243.55,158.2-248.6V.06c-.8,0-1.61,0-2.41.05-97.08,4-171.15,119.31-165.43,257.51C71.83,387,145.27,490.65,234.32,500Z"/><path class="cls-71" d="M234.32,400.57c-51.4-9.12-93-70.18-96.11-145.83C134.83,173,177.56,104.6,234.32,99.28V93.72c-60.08,3.6-105.7,75.33-102.14,161.18,3.29,79.61,47.72,143.61,102.14,151.41Z"/><polygon class="cls-72" points="234.32 330.3 141.97 710.91 189.42 710.91 234.32 431.64 234.32 330.3"/><polygon class="cls-73" points="234.32 315.15 128.59 710.39 141.97 710.91 234.32 330.3 234.32 315.15"/><path class="cls-74" d="M234.32,218.53a81.73,81.73,0,0,0-4.47,30.78,83.86,83.86,0,0,0,4.47,23.92Z"/></g></g></g></svg>